<?xml version="1.0" encoding="UTF-8"?>
<svg id="Layer_1" xmlns="http://www.w3.org/2000/svg" version="1.1" viewBox="0 0 2212 2379">
  <!-- Generator: Adobe Illustrator 30.2.1, SVG Export Plug-In . SVG Version: 2.1.1 Build 1)  -->
  <defs>
    <style>
      .st0 {
        fill-opacity: 0;
      }

      .st0, .st1, .st2, .st3 {
        stroke: #000;
      }

      .st0, .st2 {
        stroke-opacity: .8;
      }

      .st1 {
        fill: #a0a0a0;
      }

      .st1, .st4, .st3 {
        isolation: isolate;
      }

      .st1, .st3 {
        opacity: .8;
      }

      .st2 {
        fill: none;
        stroke-width: .5px;
      }

      .st3 {
        fill: #e0e0e0;
      }
    </style>
  </defs>
  <rect id="_x30__x5F_0" class="st1" x="557.5" y="1463.1" width="28" height="28"/>
  <rect id="_x31__x5F_0" class="st1" x="647.5" y="1438.1" width="24" height="24"/>
  <rect id="_x31__x5F_1" class="st3" x="653.5" y="1444.1" width="24" height="24"/>
  <rect id="_x31__x5F_2" class="st1" x="659.5" y="1450.1" width="24" height="24"/>
  <rect id="_x31__x5F_3" class="st3" x="665.5" y="1456.1" width="24" height="24"/>
  <rect id="_x31__x5F_4" class="st1" x="671.5" y="1462.1" width="24" height="24"/>
  <rect id="_x31__x5F_5" class="st3" x="677.5" y="1468.1" width="24" height="24"/>
  <rect id="_x31__x5F_6" class="st1" x="683.5" y="1474.1" width="24" height="24"/>
  <rect id="_x31__x5F_7" class="st3" x="689.5" y="1480.1" width="24" height="24"/>
  <rect id="_x31__x5F_8" class="st1" x="695.5" y="1486.1" width="24" height="24"/>
  <rect id="_x31__x5F_9" class="st3" x="701.5" y="1492.1" width="24" height="24"/>
  <rect id="_x32__x5F_0" class="st1" x="769.5" y="1444.1" width="12" height="12"/>
  <rect id="_x32__x5F_1" class="st3" x="775.5" y="1450.1" width="12" height="12"/>
  <rect id="_x32__x5F_2" class="st1" x="781.5" y="1456.1" width="12" height="12"/>
  <rect id="_x32__x5F_3" class="st3" x="787.5" y="1462.1" width="12" height="12"/>
  <rect id="_x32__x5F_4" class="st1" x="793.5" y="1468.1" width="12" height="12"/>
  <rect id="_x32__x5F_5" class="st3" x="799.5" y="1474.1" width="12" height="12"/>
  <rect id="_x32__x5F_6" class="st1" x="805.5" y="1480.1" width="12" height="12"/>
  <rect id="_x32__x5F_7" class="st3" x="811.5" y="1486.1" width="12" height="12"/>
  <rect id="_x32__x5F_8" class="st1" x="817.5" y="1492.1" width="12" height="12"/>
  <rect id="_x32__x5F_9" class="st3" x="823.5" y="1498.1" width="12" height="12"/>
  <rect id="_x33__x5F_0" class="st1" x="862.5" y="1444.1" width="12" height="12"/>
  <rect id="_x33__x5F_1" class="st3" x="868.5" y="1450.1" width="12" height="12"/>
  <rect id="_x33__x5F_2" class="st1" x="874.5" y="1456.1" width="12" height="12"/>
  <rect id="_x33__x5F_3" class="st3" x="880.5" y="1462.1" width="12" height="12"/>
  <rect id="_x33__x5F_4" class="st1" x="886.5" y="1468.1" width="12" height="12"/>
  <rect id="_x33__x5F_5" class="st3" x="892.5" y="1474.1" width="12" height="12"/>
  <rect id="_x33__x5F_6" class="st1" x="898.5" y="1480.1" width="12" height="12"/>
  <rect id="_x33__x5F_7" class="st3" x="904.5" y="1486.1" width="12" height="12"/>
  <rect id="_x33__x5F_8" class="st1" x="910.5" y="1492.1" width="12" height="12"/>
  <rect id="_x33__x5F_9" class="st3" x="916.5" y="1498.1" width="12" height="12"/>
  <rect id="_x34__x5F_0" class="st1" x="971.5" y="1416.1" width="8" height="8"/>
  <rect id="_x34__x5F_1" class="st3" x="977.5" y="1422.1" width="8" height="8"/>
  <rect id="_x34__x5F_2" class="st1" x="983.5" y="1428.1" width="8" height="8"/>
  <rect id="_x34__x5F_3" class="st3" x="989.5" y="1434.1" width="8" height="8"/>
  <rect id="_x34__x5F_4" class="st1" x="995.5" y="1440.1" width="8" height="8"/>
  <rect id="_x34__x5F_5" class="st3" x="1001.5" y="1446.1" width="8" height="8"/>
  <rect id="_x34__x5F_6" class="st1" x="1007.5" y="1452.1" width="8" height="8"/>
  <rect id="_x34__x5F_7" class="st3" x="1013.5" y="1458.1" width="8" height="8"/>
  <rect id="_x34__x5F_8" class="st1" x="1019.5" y="1464.1" width="8" height="8"/>
  <rect id="_x34__x5F_9" class="st3" x="1025.5" y="1470.1" width="8" height="8"/>
  <rect id="_x34__x5F_10" class="st1" x="1031.5" y="1476.1" width="8" height="8"/>
  <rect id="_x34__x5F_11" class="st3" x="1037.5" y="1482.1" width="8" height="8"/>
  <rect id="_x34__x5F_12" class="st1" x="1043.5" y="1488.1" width="8" height="8"/>
  <rect id="_x34__x5F_13" class="st3" x="1049.5" y="1494.1" width="8" height="8"/>
  <rect id="_x34__x5F_14" class="st1" x="1055.5" y="1500.1" width="8" height="8"/>
  <rect id="_x34__x5F_15" class="st3" x="1061.5" y="1506.1" width="8" height="8"/>
  <rect id="_x34__x5F_16" class="st1" x="1067.5" y="1512.1" width="8" height="8"/>
  <rect id="_x34__x5F_17" class="st3" x="1073.5" y="1518.1" width="8" height="8"/>
  <rect id="_x34__x5F_18" class="st1" x="1079.5" y="1524.1" width="8" height="8"/>
  <rect id="_x34__x5F_19" class="st3" x="1085.5" y="1530.1" width="8" height="8"/>
  <rect id="_x35__x5F_0" class="st1" x="1103.5" y="1416.1" width="8" height="8"/>
  <rect id="_x35__x5F_1" class="st3" x="1109.5" y="1422.1" width="8" height="8"/>
  <rect id="_x35__x5F_2" class="st1" x="1115.5" y="1428.1" width="8" height="8"/>
  <rect id="_x35__x5F_3" class="st3" x="1121.5" y="1434.1" width="8" height="8"/>
  <rect id="_x35__x5F_4" class="st1" x="1127.5" y="1440.1" width="8" height="8"/>
  <rect id="_x35__x5F_5" class="st3" x="1133.5" y="1446.1" width="8" height="8"/>
  <rect id="_x35__x5F_6" class="st1" x="1139.5" y="1452.1" width="8" height="8"/>
  <rect id="_x35__x5F_7" class="st3" x="1145.5" y="1458.1" width="8" height="8"/>
  <rect id="_x35__x5F_8" class="st1" x="1151.5" y="1464.1" width="8" height="8"/>
  <rect id="_x35__x5F_9" class="st3" x="1157.5" y="1470.1" width="8" height="8"/>
  <rect id="_x35__x5F_10" class="st1" x="1163.5" y="1476.1" width="8" height="8"/>
  <rect id="_x35__x5F_11" class="st3" x="1169.5" y="1482.1" width="8" height="8"/>
  <rect id="_x35__x5F_12" class="st1" x="1175.5" y="1488.1" width="8" height="8"/>
  <rect id="_x35__x5F_13" class="st3" x="1181.5" y="1494.1" width="8" height="8"/>
  <rect id="_x35__x5F_14" class="st1" x="1187.5" y="1500.1" width="8" height="8"/>
  <rect id="_x35__x5F_15" class="st3" x="1193.5" y="1506.1" width="8" height="8"/>
  <rect id="_x35__x5F_16" class="st1" x="1199.5" y="1512.1" width="8" height="8"/>
  <rect id="_x35__x5F_17" class="st3" x="1205.5" y="1518.1" width="8" height="8"/>
  <rect id="_x35__x5F_18" class="st1" x="1211.5" y="1524.1" width="8" height="8"/>
  <rect id="_x35__x5F_19" class="st3" x="1217.5" y="1530.1" width="8" height="8"/>
  <rect id="_x36__x5F_0" class="st1" x="1232.5" y="1418.1" width="4" height="4"/>
  <rect id="_x36__x5F_1" class="st3" x="1238.5" y="1424.1" width="4" height="4"/>
  <rect id="_x36__x5F_2" class="st1" x="1244.5" y="1430.1" width="4" height="4"/>
  <rect id="_x36__x5F_3" class="st3" x="1250.5" y="1436.1" width="4" height="4"/>
  <rect id="_x36__x5F_4" class="st1" x="1256.5" y="1442.1" width="4" height="4"/>
  <rect id="_x36__x5F_5" class="st3" x="1262.5" y="1448.1" width="4" height="4"/>
  <rect id="_x36__x5F_6" class="st1" x="1268.5" y="1454.1" width="4" height="4"/>
  <rect id="_x36__x5F_7" class="st3" x="1274.5" y="1460.1" width="4" height="4"/>
  <rect id="_x36__x5F_8" class="st1" x="1280.5" y="1466.1" width="4" height="4"/>
  <rect id="_x36__x5F_9" class="st3" x="1286.5" y="1472.1" width="4" height="4"/>
  <rect id="_x36__x5F_10" class="st1" x="1292.5" y="1478.1" width="4" height="4"/>
  <rect id="_x36__x5F_11" class="st3" x="1298.5" y="1484.1" width="4" height="4"/>
  <rect id="_x36__x5F_12" class="st1" x="1304.5" y="1490.1" width="4" height="4"/>
  <rect id="_x36__x5F_13" class="st3" x="1310.5" y="1496.1" width="4" height="4"/>
  <rect id="_x36__x5F_14" class="st1" x="1316.5" y="1502.1" width="4" height="4"/>
  <rect id="_x36__x5F_15" class="st3" x="1322.5" y="1508.1" width="4" height="4"/>
  <rect id="_x36__x5F_16" class="st1" x="1328.5" y="1514.1" width="4" height="4"/>
  <rect id="_x36__x5F_17" class="st3" x="1334.5" y="1520.1" width="4" height="4"/>
  <rect id="_x36__x5F_18" class="st1" x="1340.5" y="1526.1" width="4" height="4"/>
  <rect id="_x36__x5F_19" class="st3" x="1346.5" y="1532.1" width="4" height="4"/>
  <rect id="_x37__x5F_0" class="st1" x="1308.5" y="1418.1" width="4" height="4"/>
  <rect id="_x37__x5F_1" class="st3" x="1314.5" y="1424.1" width="4" height="4"/>
  <rect id="_x37__x5F_2" class="st1" x="1320.5" y="1430.1" width="4" height="4"/>
  <rect id="_x37__x5F_3" class="st3" x="1326.5" y="1436.1" width="4" height="4"/>
  <rect id="_x37__x5F_4" class="st1" x="1332.5" y="1442.1" width="4" height="4"/>
  <rect id="_x37__x5F_5" class="st3" x="1338.5" y="1448.1" width="4" height="4"/>
  <rect id="_x37__x5F_6" class="st1" x="1344.5" y="1454.1" width="4" height="4"/>
  <rect id="_x37__x5F_7" class="st3" x="1350.5" y="1460.1" width="4" height="4"/>
  <rect id="_x37__x5F_8" class="st1" x="1356.5" y="1466.1" width="4" height="4"/>
  <rect id="_x37__x5F_9" class="st3" x="1362.5" y="1472.1" width="4" height="4"/>
  <rect id="_x37__x5F_10" class="st1" x="1368.5" y="1478.1" width="4" height="4"/>
  <rect id="_x37__x5F_11" class="st3" x="1374.5" y="1484.1" width="4" height="4"/>
  <rect id="_x37__x5F_12" class="st1" x="1380.5" y="1490.1" width="4" height="4"/>
  <rect id="_x37__x5F_13" class="st3" x="1386.5" y="1496.1" width="4" height="4"/>
  <rect id="_x37__x5F_14" class="st1" x="1392.5" y="1502.1" width="4" height="4"/>
  <rect id="_x37__x5F_15" class="st3" x="1398.5" y="1508.1" width="4" height="4"/>
  <rect id="_x37__x5F_16" class="st1" x="1404.5" y="1514.1" width="4" height="4"/>
  <rect id="_x37__x5F_17" class="st3" x="1410.5" y="1520.1" width="4" height="4"/>
  <rect id="_x37__x5F_18" class="st1" x="1416.5" y="1526.1" width="4" height="4"/>
  <rect id="_x37__x5F_19" class="st3" x="1422.5" y="1532.1" width="4" height="4"/>
  <rect id="conv_0" class="st0" x="573.2" y="1475.5" width="5" height="5"/>
  <rect id="conv_1" class="st0" x="721" y="1500" width="2" height="2"/>
  <polygon id="conv_2" class="st0" points="826.6 1506.8 826.6 1506.8 826.6 1506.8 826.6 1506.8"/>
  <rect id="conv_3" class="st0" x="917.5" y="1499.7" width="5" height="5"/>
  <polygon id="conv_4" class="st0" points="1091.3 1533.3 1091.3 1533.3 1091.3 1533.3 1091.3 1533.3"/>
  <rect id="conv_5" class="st0" x="1218.5" y="1534" width="2" height="2"/>
  <polygon id="conv_6" class="st0" points="1349.9 1534.3 1349.9 1534.3 1349.9 1534.3 1349.9 1534.3"/>
  <line id="conv_01" data-name="conv_0" class="st2" x1="578.2" y1="1480.5" x2="717.9" y2="1505"/>
  <line id="conv_02" data-name="conv_0" class="st2" x1="578.2" y1="1475.5" x2="717.9" y2="1505"/>
  <line id="conv_11" data-name="conv_1" class="st2" x1="723" y1="1502" x2="834.2" y2="1502.4"/>
  <line id="conv_12" data-name="conv_1" class="st2" x1="723" y1="1500" x2="834.2" y2="1502.4"/>
  <line id="conv_21" data-name="conv_2" class="st2" x1="826.6" y1="1506.8" x2="919.6" y2="1506.8"/>
  <line id="conv_22" data-name="conv_2" class="st2" x1="826.6" y1="1506.8" x2="919.6" y2="1506.8"/>
  <line id="conv_31" data-name="conv_3" class="st2" x1="922.5" y1="1504.7" x2="1086.7" y2="1532"/>
  <line id="conv_32" data-name="conv_3" class="st2" x1="922.5" y1="1499.7" x2="1086.7" y2="1532"/>
  <line id="conv_41" data-name="conv_4" class="st2" x1="1091.3" y1="1533.3" x2="1223.3" y2="1533.3"/>
  <line id="conv_42" data-name="conv_4" class="st2" x1="1091.3" y1="1533.3" x2="1223.3" y2="1533.3"/>
  <line id="conv_51" data-name="conv_5" class="st2" x1="1220.5" y1="1536" x2="1347.2" y2="1534.7"/>
  <line id="conv_52" data-name="conv_5" class="st2" x1="1220.5" y1="1534" x2="1347.2" y2="1534.7"/>
  <line id="conv_61" data-name="conv_6" class="st2" x1="1349.9" y1="1534.3" x2="1425.9" y2="1534.3"/>
  <line id="conv_62" data-name="conv_6" class="st2" x1="1349.9" y1="1534.3" x2="1425.9" y2="1534.3"/>
  <polygon id="fc_0" class="st3" points="1437.5 1387.7 1447.5 1387.7 1626.4 1566.6 1616.4 1566.6 1437.5 1387.7"/>
  <polygon id="fc_1" class="st3" points="1628.4 1441.8 1638.4 1441.8 1709.1 1512.5 1699.1 1512.5 1628.4 1441.8"/>
  <polygon id="fc_2" class="st3" points="1711.1 1461.3 1721.1 1461.3 1752.8 1492.9 1742.8 1492.9 1711.1 1461.3"/>
  <line id="fc_01" data-name="fc_0" class="st2" x1="1426.5" y1="1536.1" x2="1616.4" y2="1566.6"/>
  <line id="fc_02" data-name="fc_0" class="st2" x1="1312.5" y1="1418.1" x2="1437.5" y2="1387.7"/>
  <line id="fc_11" data-name="fc_1" class="st2" x1="1626.4" y1="1566.6" x2="1699.1" y2="1512.5"/>
  <line id="fc_12" data-name="fc_1" class="st2" x1="1447.5" y1="1387.7" x2="1628.4" y2="1441.8"/>
  <line id="fc_21" data-name="fc_2" class="st2" x1="1709.1" y1="1512.5" x2="1742.8" y2="1492.9"/>
  <line id="fc_22" data-name="fc_2" class="st2" x1="1638.4" y1="1441.8" x2="1711.1" y2="1461.3"/>
  <g class="st4">
    <path d="M556.1,1584.1v11.6h-1.4v-11.6h1.4Z"/>
    <path d="M560.1,1590.5v5.2h-1.3v-8.7h1.3v1.4h.1c.2-.4.5-.8.9-1.1.4-.3,1-.4,1.6-.4s1.1.1,1.6.4c.4.2.8.6,1,1.1.2.5.4,1.1.4,1.8v5.5h-1.3v-5.5c0-.7-.2-1.2-.5-1.6-.4-.4-.8-.6-1.5-.6s-.8,0-1.1.3c-.3.2-.6.5-.8.8-.2.4-.3.8-.3,1.3Z"/>
    <path d="M568.1,1599v-12h1.3v1.4h.2c0-.2.2-.3.4-.6.2-.2.4-.4.8-.6.3-.2.8-.3,1.3-.3s1.4.2,1.9.6c.6.4,1,.9,1.3,1.6.3.7.5,1.5.5,2.4s-.2,1.7-.5,2.4c-.3.7-.8,1.2-1.3,1.6-.6.4-1.2.6-1.9.6s-1,0-1.3-.3-.6-.4-.8-.6c-.2-.2-.3-.4-.4-.6h-.1v4.6h-1.3ZM569.4,1591.4c0,.7,0,1.2.3,1.7.2.5.5.9.8,1.2.4.3.8.4,1.4.4s1-.1,1.4-.4c.4-.3.7-.7.9-1.2.2-.5.3-1.1.3-1.7s0-1.2-.3-1.7-.5-.9-.8-1.2c-.4-.3-.8-.4-1.4-.4s-1,.1-1.4.4-.7.7-.8,1.1c-.2.5-.3,1.1-.3,1.7Z"/>
    <path d="M583.4,1592.2v-5.2h1.3v8.7h-1.3v-1.5h0c-.2.4-.5.8-1,1.1-.4.3-1,.5-1.6.5s-1-.1-1.5-.4c-.4-.2-.8-.6-1-1.1-.2-.5-.4-1.1-.4-1.8v-5.5h1.3v5.5c0,.6.2,1.1.5,1.5.4.4.8.6,1.4.6s.7,0,1-.3.6-.4.9-.8c.2-.4.4-.8.4-1.3Z"/>
    <path d="M591,1587v1.1h-4.5v-1.1h4.5ZM587.8,1585h1.3v8.3c0,.4,0,.7.2.8.1.2.3.3.4.4s.4,0,.6,0,.3,0,.4,0c0,0,.2,0,.2,0l.3,1.2c0,0-.2,0-.4.1-.2,0-.4,0-.6,0-.4,0-.7,0-1.1-.2s-.7-.4-.9-.7c-.2-.3-.4-.8-.4-1.3v-8.7Z"/>
  </g>
  <g class="st4">
    <path d="M700.3,1587.8h-1.4c0-.4-.2-.8-.4-1.1s-.5-.6-.8-.8-.6-.4-1-.5c-.4-.1-.7-.2-1.1-.2-.7,0-1.3.2-1.9.5-.6.4-1,.9-1.4,1.6-.3.7-.5,1.5-.5,2.6s.2,1.9.5,2.6c.3.7.8,1.2,1.4,1.6.6.4,1.2.5,1.9.5s.8,0,1.1-.2c.4-.1.7-.3,1-.5.3-.2.5-.5.8-.8s.4-.7.4-1.1h1.4c-.1.6-.3,1.1-.6,1.6-.3.5-.6.9-1,1.2-.4.3-.9.6-1.4.7-.5.2-1.1.3-1.7.3-1,0-1.9-.2-2.6-.7-.8-.5-1.4-1.2-1.8-2.1-.4-.9-.7-2-.7-3.2s.2-2.3.7-3.2,1.1-1.6,1.8-2.1c.8-.5,1.7-.7,2.6-.7s1.1,0,1.7.3c.5.2,1,.4,1.4.7.4.3.8.7,1,1.2.3.5.5,1,.6,1.6Z"/>
    <path d="M706,1596c-.8,0-1.5-.2-2.1-.6s-1.1-.9-1.4-1.6c-.3-.7-.5-1.5-.5-2.4s.2-1.7.5-2.4c.3-.7.8-1.2,1.4-1.6s1.3-.6,2.1-.6,1.5.2,2.1.6,1.1.9,1.4,1.6c.3.7.5,1.5.5,2.4s-.2,1.7-.5,2.4c-.3.7-.8,1.2-1.4,1.6s-1.3.6-2.1.6ZM706,1594.8c.6,0,1.1-.2,1.5-.5.4-.3.7-.7.9-1.2s.3-1,.3-1.6,0-1.1-.3-1.6c-.2-.5-.5-.9-.9-1.2-.4-.3-.9-.5-1.5-.5s-1.1.2-1.5.5c-.4.3-.7.7-.9,1.2-.2.5-.3,1-.3,1.6s0,1.1.3,1.6.5.9.9,1.2c.4.3.9.5,1.5.5Z"/>
    <path d="M713.3,1590.5v5.2h-1.3v-8.7h1.3v1.4h.1c.2-.4.5-.8.9-1.1.4-.3,1-.4,1.6-.4s1.1.1,1.6.4c.4.2.8.6,1,1.1.2.5.4,1.1.4,1.8v5.5h-1.3v-5.5c0-.7-.2-1.2-.5-1.6-.4-.4-.8-.6-1.5-.6s-.8,0-1.1.3c-.3.2-.6.5-.8.8-.2.4-.3.8-.3,1.3Z"/>
    <path d="M728.5,1587l-3.2,8.7h-1.4l-3.2-8.7h1.5l2.4,7h0l2.4-7h1.5Z"/>
    <path d="M734.3,1584.1v11.6h-1.4v-10.2h0l-2.8,1.9v-1.4l2.9-1.9h1.4Z"/>
  </g>
  <g class="st4">
    <path d="M807,1584.1h1.7l4,9.7h.1l4-9.7h1.7v11.6h-1.3v-8.8h-.1l-3.6,8.8h-1.3l-3.6-8.8h-.1v8.8h-1.3v-11.6Z"/>
    <path d="M823.6,1596c-.6,0-1.1-.1-1.5-.3-.5-.2-.8-.5-1.1-.9-.3-.4-.4-.9-.4-1.5s0-.9.3-1.2c.2-.3.5-.6.8-.7.3-.2.7-.3,1.1-.4.4,0,.8-.2,1.2-.2.5,0,1-.1,1.3-.2.3,0,.6,0,.7-.2.2,0,.2-.2.2-.5h0c0-.6-.2-1-.5-1.4-.3-.3-.8-.5-1.4-.5s-1.1.1-1.5.4c-.4.3-.6.6-.8.9l-1.3-.5c.2-.5.5-.9.9-1.2.4-.3.8-.5,1.2-.6.5-.1.9-.2,1.3-.2s.6,0,1,0,.7.2,1.1.4c.3.2.6.5.9.9.2.4.3,1,.3,1.7v5.8h-1.3v-1.2h0c0,.2-.2.4-.5.6-.2.2-.5.4-.8.6-.4.2-.8.2-1.3.2ZM823.8,1594.8c.5,0,1-.1,1.3-.3.4-.2.6-.5.8-.8.2-.3.3-.7.3-1v-1.2c0,0-.2.1-.4.2-.2,0-.4.1-.7.1s-.5,0-.7.1c-.2,0-.4,0-.6,0-.3,0-.7.1-1,.2-.3.1-.5.2-.7.4s-.3.5-.3.8.2.8.5,1.1c.3.2.8.4,1.3.4Z"/>
    <path d="M831,1587l2.1,3.6,2.1-3.6h1.5l-2.8,4.4,2.8,4.4h-1.5l-2.1-3.4-2.1,3.4h-1.5l2.8-4.4-2.8-4.4h1.5Z"/>
    <path d="M838.8,1595.8v-11.6h3.9c.9,0,1.7.2,2.2.5.6.3,1,.8,1.3,1.3s.4,1.2.4,1.9-.1,1.3-.4,1.9-.7,1-1.3,1.3c-.6.3-1.3.5-2.2.5h-2.8v-1.2h2.8c.6,0,1.1-.1,1.5-.3s.7-.5.8-.9c.2-.4.3-.8.3-1.3s0-.9-.3-1.2c-.2-.4-.5-.7-.8-.9-.4-.2-.9-.3-1.5-.3h-2.5v10.4h-1.4Z"/>
    <path d="M852.4,1596c-.8,0-1.5-.2-2.1-.6s-1.1-.9-1.4-1.6c-.3-.7-.5-1.5-.5-2.4s.2-1.7.5-2.4c.3-.7.8-1.2,1.4-1.6s1.3-.6,2.1-.6,1.5.2,2.1.6,1.1.9,1.4,1.6c.3.7.5,1.5.5,2.4s-.2,1.7-.5,2.4c-.3.7-.8,1.2-1.4,1.6s-1.3.6-2.1.6ZM852.4,1594.8c.6,0,1.1-.2,1.5-.5.4-.3.7-.7.9-1.2s.3-1,.3-1.6,0-1.1-.3-1.6c-.2-.5-.5-.9-.9-1.2-.4-.3-.9-.5-1.5-.5s-1.1.2-1.5.5c-.4.3-.7.7-.9,1.2-.2.5-.3,1-.3,1.6s0,1.1.3,1.6.5.9.9,1.2c.4.3.9.5,1.5.5Z"/>
    <path d="M861.9,1596c-.8,0-1.5-.2-2.1-.6s-1.1-.9-1.4-1.6c-.3-.7-.5-1.5-.5-2.4s.2-1.7.5-2.4c.3-.7.8-1.2,1.4-1.6s1.3-.6,2.1-.6,1.5.2,2.1.6,1.1.9,1.4,1.6c.3.7.5,1.5.5,2.4s-.2,1.7-.5,2.4c-.3.7-.8,1.2-1.4,1.6s-1.3.6-2.1.6ZM861.9,1594.8c.6,0,1.1-.2,1.5-.5.4-.3.7-.7.9-1.2s.3-1,.3-1.6,0-1.1-.3-1.6c-.2-.5-.5-.9-.9-1.2-.4-.3-.9-.5-1.5-.5s-1.1.2-1.5.5c-.4.3-.7.7-.9,1.2-.2.5-.3,1-.3,1.6s0,1.1.3,1.6.5.9.9,1.2c.4.3.9.5,1.5.5Z"/>
    <path d="M869.2,1584.1v11.6h-1.3v-11.6h1.3Z"/>
  </g>
  <g class="st4">
    <path d="M903.9,1595.8v-11.6h3.9c.9,0,1.7.2,2.2.5.6.3,1,.7,1.3,1.3s.4,1.1.4,1.8-.1,1.3-.4,1.8-.7.9-1.3,1.2c-.6.3-1.3.5-2.2.5h-3.2v-1.3h3.1c.6,0,1.1,0,1.5-.3.4-.2.7-.4.8-.8.2-.3.3-.7.3-1.2s0-.9-.3-1.2c-.2-.3-.5-.6-.8-.8-.4-.2-.9-.3-1.5-.3h-2.5v10.4h-1.4ZM909.4,1590.5l2.9,5.2h-1.6l-2.8-5.2h1.6Z"/>
    <path d="M917.6,1596c-.8,0-1.6-.2-2.2-.6s-1.1-.9-1.4-1.6c-.3-.7-.5-1.5-.5-2.3s.2-1.7.5-2.4.8-1.2,1.4-1.6c.6-.4,1.3-.6,2.1-.6s.9,0,1.3.2c.4.2.8.4,1.2.7.4.3.7.8.9,1.3s.3,1.2.3,2.1v.6h-6.7v-1.2h5.4c0-.5,0-.9-.3-1.3-.2-.4-.5-.7-.8-.9s-.8-.3-1.3-.3-1,.1-1.4.4c-.4.3-.7.6-.9,1-.2.4-.3.9-.3,1.4v.8c0,.7.1,1.2.3,1.7.2.5.5.8,1,1,.4.2.9.4,1.4.4s.7,0,1-.2c.3-.1.5-.3.7-.5.2-.2.4-.5.5-.8l1.3.4c-.1.4-.4.8-.7,1.2-.3.3-.7.6-1.2.8s-1,.3-1.6.3Z"/>
    <path d="M923.5,1595.8v-11.6h1.4v10.4h5.4v1.2h-6.8Z"/>
    <path d="M940.1,1584.1h1.4v7.7c0,.8-.2,1.5-.6,2.1s-.9,1.1-1.6,1.5c-.7.4-1.5.5-2.4.5s-1.7-.2-2.4-.5c-.7-.4-1.2-.8-1.6-1.5s-.6-1.3-.6-2.1v-7.7h1.4v7.6c0,.6.1,1.1.4,1.5s.6.8,1.1,1,1,.4,1.7.4,1.2-.1,1.7-.4c.5-.3.8-.6,1.1-1s.4-.9.4-1.5v-7.6Z"/>
  </g>
  <g class="st4">
    <path d="M1076.3,1587.8h-1.4c0-.4-.2-.8-.4-1.1s-.5-.6-.8-.8-.6-.4-1-.5c-.4-.1-.7-.2-1.1-.2-.7,0-1.3.2-1.9.5-.6.4-1,.9-1.4,1.6-.3.7-.5,1.5-.5,2.6s.2,1.9.5,2.6c.3.7.8,1.2,1.4,1.6.6.4,1.2.5,1.9.5s.8,0,1.1-.2c.4-.1.7-.3,1-.5.3-.2.5-.5.8-.8s.4-.7.4-1.1h1.4c-.1.6-.3,1.1-.6,1.6-.3.5-.6.9-1,1.2-.4.3-.9.6-1.4.7-.5.2-1.1.3-1.7.3-1,0-1.9-.2-2.6-.7-.8-.5-1.4-1.2-1.8-2.1-.4-.9-.7-2-.7-3.2s.2-2.3.7-3.2,1.1-1.6,1.8-2.1c.8-.5,1.7-.7,2.6-.7s1.1,0,1.7.3c.5.2,1,.4,1.4.7.4.3.8.7,1,1.2.3.5.5,1,.6,1.6Z"/>
    <path d="M1082,1596c-.8,0-1.5-.2-2.1-.6s-1.1-.9-1.4-1.6c-.3-.7-.5-1.5-.5-2.4s.2-1.7.5-2.4c.3-.7.8-1.2,1.4-1.6s1.3-.6,2.1-.6,1.5.2,2.1.6,1.1.9,1.4,1.6c.3.7.5,1.5.5,2.4s-.2,1.7-.5,2.4c-.3.7-.8,1.2-1.4,1.6s-1.3.6-2.1.6ZM1082,1594.8c.6,0,1.1-.2,1.5-.5.4-.3.7-.7.9-1.2s.3-1,.3-1.6,0-1.1-.3-1.6c-.2-.5-.5-.9-.9-1.2-.4-.3-.9-.5-1.5-.5s-1.1.2-1.5.5c-.4.3-.7.7-.9,1.2-.2.5-.3,1-.3,1.6s0,1.1.3,1.6.5.9.9,1.2c.4.3.9.5,1.5.5Z"/>
    <path d="M1089.3,1590.5v5.2h-1.3v-8.7h1.3v1.4h.1c.2-.4.5-.8.9-1.1.4-.3,1-.4,1.6-.4s1.1.1,1.6.4c.4.2.8.6,1,1.1.2.5.4,1.1.4,1.8v5.5h-1.3v-5.5c0-.7-.2-1.2-.5-1.6-.4-.4-.8-.6-1.5-.6s-.8,0-1.1.3c-.3.2-.6.5-.8.8-.2.4-.3.8-.3,1.3Z"/>
    <path d="M1104.5,1587l-3.2,8.7h-1.4l-3.2-8.7h1.5l2.4,7h0l2.4-7h1.5Z"/>
    <path d="M1106.2,1595.8v-1l3.8-4.2c.5-.5.8-.9,1.1-1.3.3-.4.5-.7.7-1,.1-.3.2-.7.2-1s0-.8-.3-1.1c-.2-.3-.5-.5-.8-.7-.3-.2-.7-.2-1.1-.2s-.8,0-1.2.3c-.3.2-.6.4-.8.8-.2.3-.3.7-.3,1.2h-1.3c0-.7.2-1.3.5-1.8.3-.5.7-.9,1.3-1.2.5-.3,1.2-.4,1.8-.4s1.3.1,1.8.4c.5.3.9.7,1.2,1.2.3.5.4,1,.4,1.6s0,.8-.2,1.3-.4.9-.8,1.4-.9,1.1-1.6,1.8l-2.6,2.8h0c0,0,5.4,0,5.4,0v1.2h-7.3Z"/>
  </g>
  <g class="st4">
    <path d="M1204.5,1595.8h-3.6v-11.6h3.8c1.1,0,2.1.2,2.9.7s1.4,1.1,1.8,2c.4.9.6,1.9.6,3.1s-.2,2.3-.6,3.1-1.1,1.5-1.9,2c-.8.5-1.8.7-3,.7ZM1202.4,1594.5h2.1c1,0,1.8-.2,2.4-.6s1.1-.9,1.4-1.6.5-1.5.5-2.4-.2-1.7-.5-2.4c-.3-.7-.8-1.2-1.4-1.6-.6-.4-1.4-.5-2.3-.5h-2.2v9.1Z"/>
    <path d="M1212.3,1595.8v-8.7h1.3v1.3h0c.2-.4.4-.8.9-1.1.4-.3.9-.4,1.4-.4s.2,0,.4,0c.1,0,.3,0,.3,0v1.4s-.1,0-.3,0-.3,0-.5,0c-.4,0-.8,0-1.1.3-.3.2-.6.4-.8.7-.2.3-.3.7-.3,1.1v5.5h-1.3Z"/>
    <path d="M1221.8,1596c-.8,0-1.5-.2-2.1-.6s-1.1-.9-1.4-1.6c-.3-.7-.5-1.5-.5-2.4s.2-1.7.5-2.4c.3-.7.8-1.2,1.4-1.6s1.3-.6,2.1-.6,1.5.2,2.1.6,1.1.9,1.4,1.6c.3.7.5,1.5.5,2.4s-.2,1.7-.5,2.4c-.3.7-.8,1.2-1.4,1.6s-1.3.6-2.1.6ZM1221.8,1594.8c.6,0,1.1-.2,1.5-.5.4-.3.7-.7.9-1.2s.3-1,.3-1.6,0-1.1-.3-1.6c-.2-.5-.5-.9-.9-1.2-.4-.3-.9-.5-1.5-.5s-1.1.2-1.5.5c-.4.3-.7.7-.9,1.2-.2.5-.3,1-.3,1.6s0,1.1.3,1.6.5.9.9,1.2c.4.3.9.5,1.5.5Z"/>
    <path d="M1227.8,1599v-12h1.3v1.4h.2c0-.2.2-.3.4-.6.2-.2.4-.4.8-.6.3-.2.8-.3,1.3-.3s1.4.2,1.9.6c.6.4,1,.9,1.3,1.6.3.7.5,1.5.5,2.4s-.2,1.7-.5,2.4-.8,1.2-1.3,1.6-1.2.6-1.9.6-1,0-1.3-.3c-.3-.2-.6-.4-.8-.6-.2-.2-.3-.4-.4-.6h-.1v4.6h-1.3ZM1229.1,1591.4c0,.7,0,1.2.3,1.7s.5.9.8,1.2.8.4,1.4.4,1-.1,1.4-.4c.4-.3.7-.7.9-1.2.2-.5.3-1.1.3-1.7s0-1.2-.3-1.7-.5-.9-.8-1.2c-.4-.3-.8-.4-1.4-.4s-1,.1-1.4.4-.7.7-.8,1.1c-.2.5-.3,1.1-.3,1.7Z"/>
    <path d="M1241.1,1596c-.8,0-1.5-.2-2.1-.6s-1.1-.9-1.4-1.6c-.3-.7-.5-1.5-.5-2.4s.2-1.7.5-2.4c.3-.7.8-1.2,1.4-1.6s1.3-.6,2.1-.6,1.5.2,2.1.6,1.1.9,1.4,1.6c.3.7.5,1.5.5,2.4s-.2,1.7-.5,2.4c-.3.7-.8,1.2-1.4,1.6s-1.3.6-2.1.6ZM1241.1,1594.8c.6,0,1.1-.2,1.5-.5.4-.3.7-.7.9-1.2s.3-1,.3-1.6,0-1.1-.3-1.6c-.2-.5-.5-.9-.9-1.2-.4-.3-.9-.5-1.5-.5s-1.1.2-1.5.5c-.4.3-.7.7-.9,1.2-.2.5-.3,1-.3,1.6s0,1.1.3,1.6.5.9.9,1.2c.4.3.9.5,1.5.5Z"/>
    <path d="M1252.6,1592.2v-5.2h1.3v8.7h-1.3v-1.5h0c-.2.4-.5.8-1,1.1s-1,.5-1.6.5-1-.1-1.5-.4c-.4-.2-.8-.6-1-1.1-.2-.5-.4-1.1-.4-1.8v-5.5h1.3v5.5c0,.6.2,1.1.5,1.5.4.4.8.6,1.4.6s.7,0,1-.3.6-.4.9-.8c.2-.4.4-.8.4-1.3Z"/>
    <path d="M1260.2,1587v1.1h-4.5v-1.1h4.5ZM1257,1585h1.3v8.3c0,.4,0,.7.2.8.1.2.3.3.4.4.2,0,.4,0,.6,0s.3,0,.4,0c0,0,.2,0,.2,0l.3,1.2c0,0-.2,0-.4.1s-.4,0-.6,0c-.4,0-.7,0-1.1-.2-.4-.2-.7-.4-.9-.7-.2-.3-.4-.8-.4-1.3v-8.7Z"/>
  </g>
  <g class="st4">
    <path d="M1331.3,1584.1h1.7l4,9.7h.1l4-9.7h1.7v11.6h-1.3v-8.8h-.1l-3.6,8.8h-1.3l-3.6-8.8h-.1v8.8h-1.3v-11.6Z"/>
    <path d="M1347.9,1596c-.6,0-1.1-.1-1.5-.3-.5-.2-.8-.5-1.1-.9-.3-.4-.4-.9-.4-1.5s0-.9.3-1.2c.2-.3.5-.6.8-.7.3-.2.7-.3,1.1-.4.4,0,.8-.2,1.2-.2.5,0,1-.1,1.3-.2.3,0,.6,0,.7-.2.2,0,.2-.2.2-.5h0c0-.6-.2-1-.5-1.4-.3-.3-.8-.5-1.4-.5s-1.1.1-1.5.4c-.4.3-.6.6-.8.9l-1.3-.5c.2-.5.5-.9.9-1.2.4-.3.8-.5,1.2-.6.5-.1.9-.2,1.3-.2s.6,0,1,0,.7.2,1.1.4c.3.2.6.5.9.9.2.4.3,1,.3,1.7v5.8h-1.3v-1.2h0c0,.2-.2.4-.5.6-.2.2-.5.4-.8.6-.4.2-.8.2-1.3.2ZM1348.1,1594.8c.5,0,1-.1,1.3-.3.4-.2.6-.5.8-.8.2-.3.3-.7.3-1v-1.2c0,0-.2.1-.4.2-.2,0-.4.1-.7.1s-.5,0-.7.1c-.2,0-.4,0-.6,0-.3,0-.7.1-1,.2-.3.1-.5.2-.7.4s-.3.5-.3.8.2.8.5,1.1c.3.2.8.4,1.3.4Z"/>
    <path d="M1355.4,1587l2.1,3.6,2.1-3.6h1.5l-2.8,4.4,2.8,4.4h-1.5l-2.1-3.4-2.1,3.4h-1.5l2.8-4.4-2.8-4.4h1.5Z"/>
    <path d="M1363.2,1595.8v-11.6h3.9c.9,0,1.7.2,2.2.5.6.3,1,.8,1.3,1.3s.4,1.2.4,1.9-.1,1.3-.4,1.9-.7,1-1.3,1.3c-.6.3-1.3.5-2.2.5h-2.8v-1.2h2.8c.6,0,1.1-.1,1.5-.3s.7-.5.8-.9c.2-.4.3-.8.3-1.3s0-.9-.3-1.2c-.2-.4-.5-.7-.8-.9-.4-.2-.9-.3-1.5-.3h-2.5v10.4h-1.4Z"/>
    <path d="M1376.7,1596c-.8,0-1.5-.2-2.1-.6s-1.1-.9-1.4-1.6c-.3-.7-.5-1.5-.5-2.4s.2-1.7.5-2.4c.3-.7.8-1.2,1.4-1.6s1.3-.6,2.1-.6,1.5.2,2.1.6,1.1.9,1.4,1.6c.3.7.5,1.5.5,2.4s-.2,1.7-.5,2.4c-.3.7-.8,1.2-1.4,1.6s-1.3.6-2.1.6ZM1376.7,1594.8c.6,0,1.1-.2,1.5-.5.4-.3.7-.7.9-1.2s.3-1,.3-1.6,0-1.1-.3-1.6c-.2-.5-.5-.9-.9-1.2-.4-.3-.9-.5-1.5-.5s-1.1.2-1.5.5c-.4.3-.7.7-.9,1.2-.2.5-.3,1-.3,1.6s0,1.1.3,1.6.5.9.9,1.2c.4.3.9.5,1.5.5Z"/>
    <path d="M1386.3,1596c-.8,0-1.5-.2-2.1-.6s-1.1-.9-1.4-1.6c-.3-.7-.5-1.5-.5-2.4s.2-1.7.5-2.4c.3-.7.8-1.2,1.4-1.6s1.3-.6,2.1-.6,1.5.2,2.1.6,1.1.9,1.4,1.6c.3.7.5,1.5.5,2.4s-.2,1.7-.5,2.4c-.3.7-.8,1.2-1.4,1.6s-1.3.6-2.1.6ZM1386.3,1594.8c.6,0,1.1-.2,1.5-.5.4-.3.7-.7.9-1.2s.3-1,.3-1.6,0-1.1-.3-1.6c-.2-.5-.5-.9-.9-1.2-.4-.3-.9-.5-1.5-.5s-1.1.2-1.5.5c-.4.3-.7.7-.9,1.2-.2.5-.3,1-.3,1.6s0,1.1.3,1.6.5.9.9,1.2c.4.3.9.5,1.5.5Z"/>
    <path d="M1393.6,1584.1v11.6h-1.3v-11.6h1.3Z"/>
  </g>
  <g class="st4">
    <path d="M1428,1595.8v-11.6h3.9c.9,0,1.7.2,2.2.5.6.3,1,.7,1.3,1.3s.4,1.1.4,1.8-.1,1.3-.4,1.8-.7.9-1.3,1.2c-.6.3-1.3.5-2.2.5h-3.2v-1.3h3.1c.6,0,1.1,0,1.5-.3s.7-.4.8-.8c.2-.3.3-.7.3-1.2s0-.9-.3-1.2c-.2-.3-.5-.6-.8-.8s-.9-.3-1.5-.3h-2.5v10.4h-1.4ZM1433.4,1590.5l2.9,5.2h-1.6l-2.8-5.2h1.6Z"/>
    <path d="M1441.7,1596c-.8,0-1.6-.2-2.2-.6-.6-.4-1.1-.9-1.4-1.6-.3-.7-.5-1.5-.5-2.3s.2-1.7.5-2.4c.3-.7.8-1.2,1.4-1.6.6-.4,1.3-.6,2.1-.6s.9,0,1.3.2c.4.2.8.4,1.2.7s.7.8.9,1.3.3,1.2.3,2.1v.6h-6.7v-1.2h5.4c0-.5,0-.9-.3-1.3-.2-.4-.5-.7-.8-.9-.4-.2-.8-.3-1.3-.3s-1,.1-1.4.4c-.4.3-.7.6-.9,1-.2.4-.3.9-.3,1.4v.8c0,.7.1,1.2.3,1.7.2.5.5.8,1,1,.4.2.9.4,1.4.4s.7,0,1-.2c.3-.1.5-.3.7-.5.2-.2.4-.5.5-.8l1.3.4c-.1.4-.4.8-.7,1.2-.3.3-.7.6-1.2.8s-1,.3-1.6.3Z"/>
    <path d="M1447.5,1595.8v-11.6h1.4v10.4h5.4v1.2h-6.8Z"/>
    <path d="M1464.1,1584.1h1.4v7.7c0,.8-.2,1.5-.6,2.1s-.9,1.1-1.6,1.5c-.7.4-1.5.5-2.4.5s-1.7-.2-2.4-.5c-.7-.4-1.2-.8-1.6-1.5s-.6-1.3-.6-2.1v-7.7h1.4v7.6c0,.6.1,1.1.4,1.5s.6.8,1.1,1,1,.4,1.7.4,1.2-.1,1.7-.4.8-.6,1.1-1,.4-.9.4-1.5v-7.6Z"/>
  </g>
  <g class="st4">
    <path d="M1598.8,1595.8v-11.6h7v1.2h-5.6v3.9h5v1.2h-5v5.2h-1.4Z"/>
    <path d="M1609.3,1584.1v11.6h-1.3v-11.6h1.3Z"/>
    <path d="M1614.3,1596c-.6,0-1.1-.1-1.5-.3-.5-.2-.8-.5-1.1-.9-.3-.4-.4-.9-.4-1.5s0-.9.3-1.2c.2-.3.5-.6.8-.7.3-.2.7-.3,1.1-.4.4,0,.8-.2,1.2-.2.5,0,1-.1,1.3-.2.3,0,.6,0,.7-.2.2,0,.2-.2.2-.5h0c0-.6-.2-1-.5-1.4-.3-.3-.8-.5-1.4-.5s-1.1.1-1.5.4c-.4.3-.6.6-.8.9l-1.3-.5c.2-.5.5-.9.9-1.2.4-.3.8-.5,1.2-.6.5-.1.9-.2,1.3-.2s.6,0,1,0,.7.2,1.1.4c.3.2.6.5.9.9.2.4.3,1,.3,1.7v5.8h-1.3v-1.2h0c0,.2-.2.4-.5.6-.2.2-.5.4-.8.6-.4.2-.8.2-1.3.2ZM1614.5,1594.8c.5,0,1-.1,1.3-.3.4-.2.6-.5.8-.8.2-.3.3-.7.3-1v-1.2c0,0-.2.1-.4.2-.2,0-.4.1-.7.1s-.5,0-.7.1c-.2,0-.4,0-.6,0-.3,0-.7.1-1,.2-.3.1-.5.2-.7.4s-.3.5-.3.8.2.8.5,1.1c.3.2.8.4,1.3.4Z"/>
    <path d="M1624.6,1587v1.1h-4.5v-1.1h4.5ZM1621.4,1585h1.3v8.3c0,.4,0,.7.2.8.1.2.3.3.4.4s.4,0,.6,0,.3,0,.4,0c0,0,.2,0,.2,0l.3,1.2c0,0-.2,0-.4.1-.2,0-.4,0-.6,0-.4,0-.7,0-1.1-.2s-.7-.4-.9-.7c-.2-.3-.4-.8-.4-1.3v-8.7Z"/>
    <path d="M1630.4,1587v1.1h-4.5v-1.1h4.5ZM1627.2,1585h1.3v8.3c0,.4,0,.7.2.8.1.2.3.3.4.4s.4,0,.6,0,.3,0,.4,0c0,0,.2,0,.2,0l.3,1.2c0,0-.2,0-.4.1-.2,0-.4,0-.6,0-.4,0-.7,0-1.1-.2s-.7-.4-.9-.7c-.2-.3-.4-.8-.4-1.3v-8.7Z"/>
    <path d="M1636.1,1596c-.8,0-1.6-.2-2.2-.6-.6-.4-1.1-.9-1.4-1.6-.3-.7-.5-1.5-.5-2.3s.2-1.7.5-2.4c.3-.7.8-1.2,1.4-1.6.6-.4,1.3-.6,2.1-.6s.9,0,1.3.2.8.4,1.2.7c.4.3.7.8.9,1.3s.3,1.2.3,2.1v.6h-6.7v-1.2h5.4c0-.5,0-.9-.3-1.3-.2-.4-.5-.7-.8-.9-.4-.2-.8-.3-1.3-.3s-1,.1-1.4.4c-.4.3-.7.6-.9,1-.2.4-.3.9-.3,1.4v.8c0,.7.1,1.2.3,1.7.2.5.5.8,1,1,.4.2.9.4,1.4.4s.7,0,1-.2c.3-.1.5-.3.7-.5.2-.2.4-.5.5-.8l1.3.4c-.1.4-.4.8-.7,1.2-.3.3-.7.6-1.2.8s-1,.3-1.6.3Z"/>
    <path d="M1643.1,1590.5v5.2h-1.3v-8.7h1.3v1.4h.1c.2-.4.5-.8.9-1.1.4-.3,1-.4,1.6-.4s1.1.1,1.6.4c.4.2.8.6,1,1.1.2.5.4,1.1.4,1.8v5.5h-1.3v-5.5c0-.7-.2-1.2-.5-1.6-.4-.4-.8-.6-1.5-.6s-.8,0-1.1.3c-.3.2-.6.5-.8.8-.2.4-.3.8-.3,1.3Z"/>
  </g>
  <g class="st4">
    <path d="M1679,1595.8v-11.6h7v1.2h-5.6v3.9h5v1.2h-5v5.2h-1.4Z"/>
    <path d="M1697.7,1587.8h-1.4c0-.4-.2-.8-.4-1.1s-.5-.6-.8-.8-.6-.4-1-.5c-.4-.1-.7-.2-1.1-.2-.7,0-1.3.2-1.9.5-.6.4-1,.9-1.4,1.6-.3.7-.5,1.5-.5,2.6s.2,1.9.5,2.6c.3.7.8,1.2,1.4,1.6.6.4,1.2.5,1.9.5s.8,0,1.1-.2c.4-.1.7-.3,1-.5.3-.2.5-.5.8-.8s.4-.7.4-1.1h1.4c-.1.6-.3,1.1-.6,1.6-.3.5-.6.9-1,1.2-.4.3-.9.6-1.4.7-.5.2-1.1.3-1.7.3-1,0-1.9-.2-2.6-.7-.8-.5-1.4-1.2-1.8-2.1-.4-.9-.7-2-.7-3.2s.2-2.3.7-3.2,1.1-1.6,1.8-2.1c.8-.5,1.7-.7,2.6-.7s1.1,0,1.7.3c.5.2,1,.4,1.4.7.4.3.8.7,1,1.2.3.5.5,1,.6,1.6Z"/>
    <path d="M1700.1,1591.9v-1.3h7.5v1.3h-7.5ZM1703.2,1595v-7.5h1.3v7.5h-1.3Z"/>
    <path d="M1710.5,1595.8v-11.6h3.9c.9,0,1.7.2,2.2.5.6.3,1,.7,1.3,1.3s.4,1.1.4,1.8-.1,1.3-.4,1.8-.7.9-1.3,1.2-1.3.5-2.2.5h-3.2v-1.3h3.1c.6,0,1.1,0,1.5-.3.4-.2.7-.4.8-.8.2-.3.3-.7.3-1.2s0-.9-.3-1.2-.5-.6-.8-.8c-.4-.2-.9-.3-1.5-.3h-2.5v10.4h-1.4ZM1716,1590.5l2.9,5.2h-1.6l-2.8-5.2h1.6Z"/>
    <path d="M1724.2,1596c-.8,0-1.6-.2-2.2-.6-.6-.4-1.1-.9-1.4-1.6-.3-.7-.5-1.5-.5-2.3s.2-1.7.5-2.4c.3-.7.8-1.2,1.4-1.6.6-.4,1.3-.6,2.1-.6s.9,0,1.3.2.8.4,1.2.7c.4.3.7.8.9,1.3s.3,1.2.3,2.1v.6h-6.7v-1.2h5.4c0-.5,0-.9-.3-1.3-.2-.4-.5-.7-.8-.9-.4-.2-.8-.3-1.3-.3s-1,.1-1.4.4c-.4.3-.7.6-.9,1-.2.4-.3.9-.3,1.4v.8c0,.7.1,1.2.3,1.7.2.5.5.8,1,1,.4.2.9.4,1.4.4s.7,0,1-.2c.3-.1.5-.3.7-.5.2-.2.4-.5.5-.8l1.3.4c-.1.4-.4.8-.7,1.2-.3.3-.7.6-1.2.8s-1,.3-1.6.3Z"/>
    <path d="M1730.1,1595.8v-11.6h1.4v10.4h5.4v1.2h-6.8Z"/>
    <path d="M1746.7,1584.1h1.4v7.7c0,.8-.2,1.5-.6,2.1s-.9,1.1-1.6,1.5c-.7.4-1.5.5-2.4.5s-1.7-.2-2.4-.5c-.7-.4-1.2-.8-1.6-1.5s-.6-1.3-.6-2.1v-7.7h1.4v7.6c0,.6.1,1.1.4,1.5s.6.8,1.1,1,1,.4,1.7.4,1.2-.1,1.7-.4.8-.6,1.1-1,.4-.9.4-1.5v-7.6Z"/>
  </g>
  <g class="st4">
    <path d="M1752.2,1575.8v-11.6h7v1.2h-5.6v3.9h5v1.2h-5v5.2h-1.4Z"/>
    <path d="M1770.9,1567.8h-1.4c0-.4-.2-.8-.4-1.1-.2-.3-.5-.6-.8-.8-.3-.2-.6-.4-1-.5-.4-.1-.7-.2-1.1-.2-.7,0-1.3.2-1.9.5-.6.4-1,.9-1.4,1.6-.3.7-.5,1.5-.5,2.6s.2,1.9.5,2.6c.3.7.8,1.2,1.4,1.6.6.4,1.2.5,1.9.5s.8,0,1.1-.2c.4-.1.7-.3,1-.5.3-.2.5-.5.8-.8.2-.3.4-.7.4-1.1h1.4c-.1.6-.3,1.1-.6,1.6-.3.5-.6.9-1,1.2-.4.3-.9.6-1.4.7-.5.2-1.1.3-1.7.3-1,0-1.9-.2-2.6-.7-.8-.5-1.4-1.2-1.8-2.1-.4-.9-.7-2-.7-3.2s.2-2.3.7-3.2,1.1-1.6,1.8-2.1c.8-.5,1.7-.7,2.6-.7s1.1,0,1.7.3c.5.2,1,.4,1.4.7.4.3.8.7,1,1.2.3.5.5,1,.6,1.6Z"/>
    <path d="M1773.3,1571.9v-1.3h7.5v1.3h-7.5ZM1776.4,1575v-7.5h1.3v7.5h-1.3Z"/>
    <path d="M1783.7,1575.8v-11.6h1.4v10.4h5.4v1.2h-6.8Z"/>
    <path d="M1796.1,1576c-.8,0-1.5-.2-2.1-.6-.6-.4-1.1-.9-1.4-1.6-.3-.7-.5-1.5-.5-2.4s.2-1.7.5-2.4c.3-.7.8-1.2,1.4-1.6.6-.4,1.3-.6,2.1-.6s1.5.2,2.1.6,1.1.9,1.4,1.6c.3.7.5,1.5.5,2.4s-.2,1.7-.5,2.4c-.3.7-.8,1.2-1.4,1.6s-1.3.6-2.1.6ZM1796.1,1574.8c.6,0,1.1-.2,1.5-.5.4-.3.7-.7.9-1.2s.3-1,.3-1.6,0-1.1-.3-1.6c-.2-.5-.5-.9-.9-1.2-.4-.3-.9-.5-1.5-.5s-1.1.2-1.5.5c-.4.3-.7.7-.9,1.2-.2.5-.3,1-.3,1.6s0,1.1.3,1.6.5.9.9,1.2c.4.3.9.5,1.5.5Z"/>
    <path d="M1805.6,1579.3c-.6,0-1.2,0-1.7-.2-.5-.2-.9-.4-1.2-.6-.3-.3-.6-.6-.7-.9l1.1-.8c.1.2.3.3.5.5.2.2.4.4.8.5s.8.2,1.3.2,1.3-.2,1.7-.5c.5-.3.7-.9.7-1.6v-1.8h-.1c0,.2-.2.4-.4.6-.2.2-.4.4-.8.6-.3.2-.8.3-1.4.3s-1.3-.2-1.9-.5c-.6-.3-1-.8-1.3-1.5s-.5-1.4-.5-2.3.2-1.7.5-2.3.8-1.2,1.3-1.5c.6-.4,1.2-.5,1.9-.5s1,0,1.4.3c.3.2.6.4.8.6.2.2.3.4.4.6h.1v-1.4h1.3v9c0,.8-.2,1.4-.5,1.8s-.8.8-1.4,1c-.6.2-1.2.3-1.9.3ZM1805.6,1574.5c.5,0,1-.1,1.4-.4s.7-.6.8-1.1c.2-.5.3-1,.3-1.7s0-1.2-.3-1.7c-.2-.5-.5-.9-.8-1.1-.4-.3-.8-.4-1.4-.4s-1,.1-1.4.4c-.4.3-.7.7-.8,1.2-.2.5-.3,1-.3,1.6s0,1.1.3,1.6c.2.5.5.8.9,1.1.4.3.8.4,1.4.4Z"/>
    <path d="M1818.4,1567.1c0-.6-.3-1-.8-1.3-.5-.3-1.1-.5-1.8-.5s-1,0-1.3.2c-.4.2-.7.4-.9.7-.2.3-.3.6-.3,1s0,.6.2.8c.1.2.3.4.6.6.2.1.5.3.7.4s.5.2.7.2l1.2.3c.3,0,.6.2,1,.3.4.1.7.3,1.1.6s.6.5.8.9c.2.4.3.8.3,1.4s-.2,1.2-.5,1.7c-.3.5-.8.9-1.4,1.2-.6.3-1.4.4-2.3.4s-1.6-.1-2.2-.4c-.6-.3-1.1-.6-1.4-1.1-.3-.5-.5-1-.6-1.7h1.5c0,.4.2.8.4,1.1.3.3.6.5,1,.6.4.1.8.2,1.3.2s1,0,1.4-.3c.4-.2.8-.4,1-.7s.4-.7.4-1.1-.1-.7-.3-.9-.5-.4-.9-.6c-.4-.2-.7-.3-1.1-.4l-1.4-.4c-.9-.3-1.6-.6-2.2-1.1-.5-.5-.8-1.1-.8-1.9s.2-1.2.5-1.7c.4-.5.8-.9,1.4-1.1.6-.3,1.3-.4,2-.4s1.4.1,2,.4c.6.3,1,.6,1.4,1.1.3.5.5,1,.5,1.6h-1.4Z"/>
    <path d="M1825.6,1576c-.8,0-1.5-.2-2.1-.6s-1.1-.9-1.4-1.6c-.3-.7-.5-1.5-.5-2.4s.2-1.7.5-2.4c.3-.7.8-1.2,1.4-1.6s1.3-.6,2.1-.6,1.5.2,2.1.6c.6.4,1.1.9,1.4,1.6.3.7.5,1.5.5,2.4s-.2,1.7-.5,2.4c-.3.7-.8,1.2-1.4,1.6-.6.4-1.3.6-2.1.6ZM1825.6,1574.8c.6,0,1.1-.2,1.5-.5.4-.3.7-.7.9-1.2s.3-1,.3-1.6,0-1.1-.3-1.6c-.2-.5-.5-.9-.9-1.2-.4-.3-.9-.5-1.5-.5s-1.1.2-1.5.5c-.4.3-.7.7-.9,1.2-.2.5-.3,1-.3,1.6s0,1.1.3,1.6.5.9.9,1.2c.4.3.9.5,1.5.5Z"/>
    <path d="M1835.5,1567.1v1.1h-4.7v-1.1h4.7ZM1832.2,1575.8v-9.9c0-.5.1-.9.4-1.2s.5-.6.9-.8.8-.2,1.2-.2.6,0,.8,0c.2,0,.4.1.5.1l-.4,1.2c0,0-.2,0-.3,0-.1,0-.3,0-.5,0-.4,0-.8.1-1,.3s-.3.6-.3,1v9.6h-1.3Z"/>
    <path d="M1841.2,1567.1v1.1h-4.5v-1.1h4.5ZM1837.9,1565h1.3v8.3c0,.4,0,.7.2.8s.3.3.4.4.4,0,.6,0,.3,0,.4,0c0,0,.2,0,.2,0l.3,1.2c0,0-.2,0-.4.1-.2,0-.4,0-.6,0-.4,0-.8,0-1.1-.2s-.7-.4-.9-.7-.4-.8-.4-1.3v-8.7Z"/>
    <path d="M1843.2,1575.8v-8.7h1.3v1.4h.1c.2-.5.5-.8.9-1.1.4-.3.9-.4,1.5-.4s1.1.1,1.4.4c.4.3.7.6.9,1.1h0c.2-.5.6-.8,1-1.1.4-.3,1-.4,1.6-.4s1.4.2,1.9.7c.5.5.7,1.2.7,2.3v5.8h-1.3v-5.8c0-.6-.2-1.1-.5-1.4-.4-.3-.8-.4-1.2-.4s-1.1.2-1.4.6c-.3.4-.5.8-.5,1.4v5.7h-1.4v-6c0-.5-.2-.9-.5-1.2s-.7-.5-1.2-.5-.7,0-1,.3c-.3.2-.5.4-.7.8-.2.3-.3.7-.3,1.1v5.5h-1.3Z"/>
    <path d="M1859.7,1576c-.6,0-1.1-.1-1.5-.3-.5-.2-.8-.5-1.1-.9s-.4-.9-.4-1.5,0-.9.3-1.2.5-.6.8-.7.7-.3,1.1-.4.8-.2,1.2-.2c.5,0,1-.1,1.3-.2.3,0,.6,0,.7-.2.2,0,.2-.2.2-.5h0c0-.6-.2-1-.5-1.4-.3-.3-.8-.5-1.4-.5s-1.1.1-1.5.4c-.4.3-.6.6-.8.9l-1.3-.5c.2-.5.5-.9.9-1.2.4-.3.8-.5,1.2-.6.5-.1.9-.2,1.3-.2s.6,0,1,0,.7.2,1.1.4c.3.2.6.5.9.9.2.4.3,1,.3,1.7v5.8h-1.3v-1.2h0c0,.2-.2.4-.5.6-.2.2-.5.4-.8.6-.4.2-.8.2-1.3.2ZM1859.9,1574.8c.5,0,1-.1,1.3-.3s.6-.5.8-.8c.2-.3.3-.7.3-1v-1.2c0,0-.2.1-.4.2-.2,0-.4.1-.7.1s-.5,0-.7.1c-.2,0-.4,0-.6,0-.3,0-.7.1-1,.2-.3.1-.5.2-.7.4s-.3.5-.3.8.2.8.5,1.1c.3.2.8.4,1.3.4Z"/>
    <path d="M1867.1,1567.1l2.1,3.6,2.1-3.6h1.5l-2.8,4.4,2.8,4.4h-1.5l-2.1-3.4-2.1,3.4h-1.5l2.8-4.4-2.8-4.4h1.5Z"/>
    <path d="M1797.3,1589.2c0,1.2-.2,2.3-.7,3.2-.4.9-1.1,1.6-1.8,2.1-.8.5-1.7.7-2.6.7s-1.9-.2-2.6-.7c-.8-.5-1.4-1.2-1.8-2.1-.4-.9-.7-2-.7-3.2s.2-2.3.7-3.2c.4-.9,1.1-1.6,1.8-2.1.8-.5,1.7-.7,2.6-.7s1.9.2,2.6.7c.8.5,1.4,1.2,1.8,2.1s.7,2,.7,3.2ZM1795.9,1589.2c0-1-.2-1.9-.5-2.6-.3-.7-.8-1.2-1.4-1.6-.6-.4-1.2-.5-1.9-.5s-1.3.2-1.9.5c-.6.4-1,.9-1.4,1.6s-.5,1.5-.5,2.6.2,1.9.5,2.6c.3.7.8,1.2,1.4,1.6.6.4,1.2.5,1.9.5s1.3-.2,1.9-.5c.6-.4,1-.9,1.4-1.6.3-.7.5-1.5.5-2.6Z"/>
    <path d="M1805,1591.5v-5.2h1.3v8.7h-1.3v-1.5h0c-.2.4-.5.8-1,1.1-.4.3-1,.5-1.6.5s-1-.1-1.5-.4c-.4-.2-.8-.6-1-1.1-.2-.5-.4-1.1-.4-1.8v-5.5h1.3v5.5c0,.6.2,1.1.5,1.5s.8.6,1.4.6.7,0,1-.3c.3-.2.6-.4.9-.8.2-.4.4-.8.4-1.3Z"/>
    <path d="M1812.6,1586.3v1.1h-4.5v-1.1h4.5ZM1809.3,1584.2h1.3v8.3c0,.4,0,.7.2.8.1.2.3.3.4.4s.4,0,.6,0,.3,0,.4,0c0,0,.2,0,.2,0l.3,1.2c0,0-.2,0-.4.1-.2,0-.4,0-.6,0-.4,0-.7,0-1.1-.2s-.7-.4-.9-.7c-.2-.3-.4-.8-.4-1.3v-8.7Z"/>
    <path d="M1814.6,1598.3v-12h1.3v1.4h.2c0-.2.2-.3.4-.6.2-.2.4-.4.8-.6s.8-.3,1.3-.3,1.4.2,1.9.6c.6.4,1,.9,1.3,1.6.3.7.5,1.5.5,2.4s-.2,1.7-.5,2.4-.8,1.2-1.3,1.6-1.2.6-1.9.6-1,0-1.3-.3c-.3-.2-.6-.4-.8-.6-.2-.2-.3-.4-.4-.6h-.1v4.6h-1.3ZM1815.9,1590.7c0,.7,0,1.2.3,1.7s.5.9.8,1.2c.4.3.8.4,1.4.4s1-.1,1.4-.4c.4-.3.7-.7.9-1.2.2-.5.3-1.1.3-1.7s0-1.2-.3-1.7-.5-.9-.8-1.2c-.4-.3-.8-.4-1.4-.4s-1,.1-1.4.4-.7.7-.8,1.1c-.2.5-.3,1.1-.3,1.7Z"/>
    <path d="M1829.8,1591.5v-5.2h1.3v8.7h-1.3v-1.5h0c-.2.4-.5.8-1,1.1-.4.3-1,.5-1.6.5s-1-.1-1.5-.4c-.4-.2-.8-.6-1-1.1-.2-.5-.4-1.1-.4-1.8v-5.5h1.3v5.5c0,.6.2,1.1.5,1.5s.8.6,1.4.6.7,0,1-.3c.3-.2.6-.4.9-.8.2-.4.4-.8.4-1.3Z"/>
    <path d="M1837.4,1586.3v1.1h-4.5v-1.1h4.5ZM1834.2,1584.2h1.3v8.3c0,.4,0,.7.2.8s.3.3.4.4.4,0,.6,0,.3,0,.4,0c0,0,.2,0,.2,0l.3,1.2c0,0-.2,0-.4.1-.2,0-.4,0-.6,0-.4,0-.8,0-1.1-.2s-.7-.4-.9-.7-.4-.8-.4-1.3v-8.7Z"/>
  </g>
  <g class="st4">
    <path d="M562.8,1431.7v11.6h-1.4v-10.2h0l-2.8,1.9v-1.4l2.9-1.9h1.4Z"/>
    <path d="M572.9,1446.4c-1.2,0-2.2-.2-3.1-.5s-1.6-.8-2.2-1.4c-.6-.6-1.1-1.4-1.4-2.3-.3-.9-.5-1.9-.5-3.1s.2-2.1.5-3,.8-1.6,1.4-2.2c.6-.6,1.3-1.1,2.2-1.4.9-.3,1.8-.5,2.9-.5s2,.2,2.8.5c.8.3,1.5.8,2,1.4.5.6.9,1.2,1.2,2,.3.7.4,1.5.4,2.3s0,1.1,0,1.7-.2,1.1-.3,1.6c-.2.5-.4.9-.8,1.1-.4.3-.8.4-1.4.4s-.6,0-.9-.1c-.3,0-.6-.2-.8-.4-.2-.2-.4-.5-.4-.8h0c0,.2-.2.4-.4.6-.2.2-.4.4-.7.5s-.7.2-1.1.2c-.5,0-.9-.1-1.3-.3-.4-.2-.7-.5-.9-.8-.3-.4-.4-.8-.6-1.2-.1-.5-.2-1-.2-1.5s0-1,.2-1.4c.2-.4.4-.8.6-1.1s.6-.6,1-.8.8-.3,1.2-.4c.4,0,.7,0,1,0,.3,0,.6.2.8.3.2.1.3.3.4.5h0v-.6h1.2v5.1c0,.3,0,.6.3.8s.4.4.8.4.7-.1.9-.4.3-.7.4-1.2c0-.6.1-1.3.1-2.1s0-1-.2-1.5-.3-1-.6-1.4-.6-.8-1.1-1.1-.9-.6-1.5-.8c-.6-.2-1.2-.3-1.9-.3s-1.7.1-2.4.4c-.7.3-1.3.7-1.8,1.2-.5.5-.9,1.2-1.1,1.9s-.4,1.6-.4,2.5.1,1.8.4,2.6.6,1.4,1.1,1.9c.5.5,1.1.9,1.9,1.2.7.3,1.6.4,2.6.4s.8,0,1.2-.1c.4,0,.8-.2,1.1-.3.3,0,.5-.2.7-.2l.3,1c-.2,0-.5.2-.9.3-.4,0-.8.2-1.2.2-.4,0-.8,0-1.2,0ZM572.2,1441.9c.5,0,.9-.1,1.2-.3.3-.2.5-.5.7-.9.1-.4.2-.9.2-1.6s0-1.1-.2-1.5c-.2-.4-.4-.6-.7-.8-.3-.1-.7-.2-1.1-.2s-.8.1-1.1.3c-.3.2-.5.5-.7.9s-.2.8-.2,1.2,0,.9.2,1.4c.1.4.3.8.6,1,.3.3.7.4,1.2.4Z"/>
    <path d="M581.2,1443.3v-1l3.8-4.2c.5-.5.8-.9,1.1-1.3.3-.4.5-.7.7-1s.2-.7.2-1,0-.8-.3-1.1c-.2-.3-.5-.5-.8-.7-.3-.2-.7-.2-1.1-.2s-.8,0-1.2.3-.6.4-.8.8c-.2.3-.3.7-.3,1.2h-1.3c0-.7.2-1.3.5-1.8.3-.5.7-.9,1.3-1.2.5-.3,1.2-.4,1.8-.4s1.3.1,1.8.4c.5.3.9.7,1.2,1.2s.4,1,.4,1.6,0,.8-.2,1.3c-.2.4-.4.9-.8,1.4s-.9,1.1-1.6,1.8l-2.6,2.8h0c0,0,5.4,0,5.4,0v1.2h-7.3Z"/>
    <path d="M594.6,1443.5c-.8,0-1.5-.1-2.1-.4-.6-.3-1.1-.7-1.4-1.2-.3-.5-.5-1.1-.5-1.7,0-.5,0-.9.3-1.4.2-.4.5-.8.8-1.1.3-.3.7-.5,1.2-.5h0c-.6-.2-1-.5-1.3-1-.3-.5-.5-1-.5-1.7,0-.6.1-1.1.4-1.6.3-.5.7-.8,1.3-1.1s1.1-.4,1.8-.4,1.3.1,1.8.4.9.6,1.3,1.1c.3.5.5,1,.5,1.6,0,.6-.2,1.2-.5,1.7s-.8.8-1.3.9h0c.4.1.8.3,1.1.6.3.3.6.6.8,1.1.2.4.3.9.3,1.4,0,.6-.2,1.2-.5,1.7-.3.5-.8.9-1.4,1.2-.6.3-1.3.4-2.1.4ZM594.6,1442.2c.5,0,1,0,1.4-.3.4-.2.7-.4.9-.7.2-.3.3-.7.3-1.1,0-.4-.1-.8-.3-1.2-.2-.3-.5-.6-.9-.8s-.8-.3-1.3-.3-.9,0-1.3.3-.7.5-.9.8-.3.7-.3,1.2c0,.4,0,.8.3,1.1s.5.6.9.7c.4.2.8.3,1.4.3ZM594.6,1436.7c.4,0,.8,0,1.1-.2.3-.2.6-.4.8-.7s.3-.7.3-1.1c0-.4,0-.7-.3-1-.2-.3-.4-.5-.8-.7-.3-.2-.7-.2-1.1-.2s-.8,0-1.1.2c-.3.2-.6.4-.8.7-.2.3-.3.6-.3,1,0,.4,0,.8.3,1.1s.4.5.8.7c.3.2.7.2,1.1.2Z"/>
    <path d="M601.7,1434.6l2.1,3.6,2.1-3.6h1.5l-2.8,4.4,2.8,4.4h-1.5l-2.1-3.4-2.1,3.4h-1.5l2.8-4.4-2.8-4.4h1.5Z"/>
    <path d="M609.3,1443.3v-1l3.8-4.2c.5-.5.8-.9,1.1-1.3.3-.4.5-.7.7-1s.2-.7.2-1,0-.8-.3-1.1c-.2-.3-.5-.5-.8-.7-.3-.2-.7-.2-1.1-.2s-.8,0-1.2.3-.6.4-.8.8c-.2.3-.3.7-.3,1.2h-1.3c0-.7.2-1.3.5-1.8.3-.5.7-.9,1.3-1.2.5-.3,1.2-.4,1.8-.4s1.3.1,1.8.4c.5.3.9.7,1.2,1.2s.4,1,.4,1.6,0,.8-.2,1.3c-.2.4-.4.9-.8,1.4s-.9,1.1-1.6,1.8l-2.6,2.8h0c0,0,5.4,0,5.4,0v1.2h-7.3Z"/>
    <path d="M622.7,1443.5c-.8,0-1.5-.1-2.1-.4-.6-.3-1.1-.7-1.4-1.2-.3-.5-.5-1.1-.5-1.7,0-.5,0-.9.3-1.4.2-.4.5-.8.8-1.1.3-.3.7-.5,1.2-.5h0c-.6-.2-1-.5-1.3-1-.3-.5-.5-1-.5-1.7,0-.6.1-1.1.4-1.6.3-.5.7-.8,1.3-1.1s1.1-.4,1.8-.4,1.3.1,1.8.4.9.6,1.3,1.1c.3.5.5,1,.5,1.6,0,.6-.2,1.2-.5,1.7s-.8.8-1.3.9h0c.4.1.8.3,1.1.6.3.3.6.6.8,1.1.2.4.3.9.3,1.4,0,.6-.2,1.2-.5,1.7-.3.5-.8.9-1.4,1.2-.6.3-1.3.4-2.1.4ZM622.7,1442.2c.5,0,1,0,1.4-.3.4-.2.7-.4.9-.7.2-.3.3-.7.3-1.1,0-.4-.1-.8-.3-1.2-.2-.3-.5-.6-.9-.8s-.8-.3-1.3-.3-.9,0-1.3.3-.7.5-.9.8-.3.7-.3,1.2c0,.4,0,.8.3,1.1s.5.6.9.7c.4.2.8.3,1.4.3ZM622.7,1436.7c.4,0,.8,0,1.1-.2.3-.2.6-.4.8-.7s.3-.7.3-1.1c0-.4,0-.7-.3-1-.2-.3-.4-.5-.8-.7-.3-.2-.7-.2-1.1-.2s-.8,0-1.1.2c-.3.2-.6.4-.8.7-.2.3-.3.6-.3,1,0,.4,0,.8.3,1.1s.4.5.8.7c.3.2.7.2,1.1.2Z"/>
  </g>
  <g class="st4">
    <path d="M652.8,1406.7v11.6h-1.4v-10.2h0l-2.8,1.9v-1.4l2.9-1.9h1.4Z"/>
    <path d="M660,1418.5c-.9,0-1.6-.2-2.2-.7-.6-.5-1.1-1.1-1.4-2-.3-.9-.5-2-.5-3.2s.2-2.3.5-3.2c.3-.9.8-1.6,1.4-2,.6-.5,1.3-.7,2.2-.7s1.6.2,2.2.7c.6.5,1.1,1.2,1.4,2,.3.9.5,2,.5,3.2s-.2,2.3-.5,3.2c-.3.9-.8,1.6-1.4,2-.6.5-1.3.7-2.2.7ZM660,1417.2c.8,0,1.5-.4,2-1.2s.7-2,.7-3.5-.1-1.9-.3-2.6-.5-1.2-.9-1.6c-.4-.4-.9-.6-1.4-.6-.8,0-1.5.4-2,1.2-.5.8-.7,2-.7,3.5s.1,1.9.3,2.6c.2.7.5,1.2.9,1.6.4.4.9.6,1.4.6Z"/>
    <path d="M672.9,1421.4c-1.2,0-2.2-.2-3.1-.5s-1.6-.8-2.2-1.4c-.6-.6-1.1-1.4-1.4-2.3-.3-.9-.5-1.9-.5-3.1s.2-2.1.5-3,.8-1.6,1.4-2.2c.6-.6,1.3-1.1,2.2-1.4.9-.3,1.8-.5,2.9-.5s2,.2,2.8.5c.8.3,1.5.8,2,1.4.5.6.9,1.2,1.2,2,.3.7.4,1.5.4,2.3s0,1.1,0,1.7-.2,1.1-.3,1.6c-.2.5-.4.9-.8,1.1-.4.3-.8.4-1.4.4s-.6,0-.9-.1c-.3,0-.6-.2-.8-.4-.2-.2-.4-.5-.4-.8h0c0,.2-.2.4-.4.6-.2.2-.4.4-.7.5s-.7.2-1.1.2c-.5,0-.9-.1-1.3-.3-.4-.2-.7-.5-.9-.8-.3-.4-.4-.8-.6-1.2-.1-.5-.2-1-.2-1.5s0-1,.2-1.4c.2-.4.4-.8.6-1.1s.6-.6,1-.8.8-.3,1.2-.4c.4,0,.7,0,1,0,.3,0,.6.2.8.3.2.1.3.3.4.5h0v-.6h1.2v5.1c0,.3,0,.6.3.8s.4.4.8.4.7-.1.9-.4.3-.7.4-1.2c0-.6.1-1.3.1-2.1s0-1-.2-1.5-.3-1-.6-1.4-.6-.8-1.1-1.1-.9-.6-1.5-.8c-.6-.2-1.2-.3-1.9-.3s-1.7.1-2.4.4c-.7.3-1.3.7-1.8,1.2-.5.5-.9,1.2-1.1,1.9s-.4,1.6-.4,2.5.1,1.8.4,2.6.6,1.4,1.1,1.9c.5.5,1.1.9,1.9,1.2.7.3,1.6.4,2.6.4s.8,0,1.2-.1c.4,0,.8-.2,1.1-.3.3,0,.5-.2.7-.2l.3,1c-.2,0-.5.2-.9.3-.4,0-.8.2-1.2.2-.4,0-.8,0-1.2,0ZM672.2,1416.9c.5,0,.9-.1,1.2-.3.3-.2.5-.5.7-.9.1-.4.2-.9.2-1.6s0-1.1-.2-1.5c-.2-.4-.4-.6-.7-.8-.3-.1-.7-.2-1.1-.2s-.8.1-1.1.3c-.3.2-.5.5-.7.9s-.2.8-.2,1.2,0,.9.2,1.4c.1.4.3.8.6,1,.3.3.7.4,1.2.4Z"/>
    <path d="M681.2,1418.3v-1l3.8-4.2c.5-.5.8-.9,1.1-1.3.3-.4.5-.7.7-1s.2-.7.2-1,0-.8-.3-1.1c-.2-.3-.5-.5-.8-.7-.3-.2-.7-.2-1.1-.2s-.8,0-1.2.3-.6.4-.8.8c-.2.3-.3.7-.3,1.2h-1.3c0-.7.2-1.3.5-1.8.3-.5.7-.9,1.3-1.2.5-.3,1.2-.4,1.8-.4s1.3.1,1.8.4c.5.3.9.7,1.2,1.2s.4,1,.4,1.6,0,.8-.2,1.3c-.2.4-.4.9-.8,1.4s-.9,1.1-1.6,1.8l-2.6,2.8h0c0,0,5.4,0,5.4,0v1.2h-7.3Z"/>
    <path d="M690.6,1415.9v-1.2l5.1-8.1h.8v1.8h-.6l-3.9,6.1h0c0,0,6.9,0,6.9,0v1.2h-8.4ZM696,1418.3v-11.6h1.3v11.6h-1.3Z"/>
    <path d="M702.1,1409.6l2.1,3.6,2.1-3.6h1.5l-2.8,4.4,2.8,4.4h-1.5l-2.1-3.4-2.1,3.4h-1.5l2.8-4.4-2.8-4.4h1.5Z"/>
    <path d="M709.7,1418.3v-1l3.8-4.2c.5-.5.8-.9,1.1-1.3.3-.4.5-.7.7-1s.2-.7.2-1,0-.8-.3-1.1c-.2-.3-.5-.5-.8-.7-.3-.2-.7-.2-1.1-.2s-.8,0-1.2.3-.6.4-.8.8c-.2.3-.3.7-.3,1.2h-1.3c0-.7.2-1.3.5-1.8.3-.5.7-.9,1.3-1.2.5-.3,1.2-.4,1.8-.4s1.3.1,1.8.4c.5.3.9.7,1.2,1.2s.4,1,.4,1.6,0,.8-.2,1.3c-.2.4-.4.9-.8,1.4s-.9,1.1-1.6,1.8l-2.6,2.8h0c0,0,5.4,0,5.4,0v1.2h-7.3Z"/>
    <path d="M719.2,1415.9v-1.2l5.1-8.1h.8v1.8h-.6l-3.9,6.1h0c0,0,6.9,0,6.9,0v1.2h-8.4ZM724.6,1418.3v-11.6h1.3v11.6h-1.3Z"/>
  </g>
  <g class="st4">
    <path d="M774.8,1412.7v11.6h-1.4v-10.2h0l-2.8,1.9v-1.4l2.9-1.9h1.4Z"/>
    <path d="M782,1424.5c-.9,0-1.6-.2-2.2-.7-.6-.5-1.1-1.1-1.4-2-.3-.9-.5-2-.5-3.2s.2-2.3.5-3.2c.3-.9.8-1.6,1.4-2,.6-.5,1.3-.7,2.2-.7s1.6.2,2.2.7c.6.5,1.1,1.2,1.4,2,.3.9.5,2,.5,3.2s-.2,2.3-.5,3.2c-.3.9-.8,1.6-1.4,2-.6.5-1.3.7-2.2.7ZM782,1423.2c.8,0,1.5-.4,2-1.2s.7-2,.7-3.5-.1-1.9-.3-2.6-.5-1.2-.9-1.6c-.4-.4-.9-.6-1.4-.6-.8,0-1.5.4-2,1.2-.5.8-.7,2-.7,3.5s.1,1.9.3,2.6c.2.7.5,1.2.9,1.6.4.4.9.6,1.4.6Z"/>
    <path d="M794.9,1427.4c-1.2,0-2.2-.2-3.1-.5s-1.6-.8-2.2-1.4c-.6-.6-1.1-1.4-1.4-2.3-.3-.9-.5-1.9-.5-3.1s.2-2.1.5-3,.8-1.6,1.4-2.2c.6-.6,1.3-1.1,2.2-1.4.9-.3,1.8-.5,2.9-.5s2,.2,2.8.5c.8.3,1.5.8,2,1.4.5.6.9,1.2,1.2,2,.3.7.4,1.5.4,2.3s0,1.1,0,1.7-.2,1.1-.3,1.6c-.2.5-.4.9-.8,1.1-.4.3-.8.4-1.4.4s-.6,0-.9-.1c-.3,0-.6-.2-.8-.4-.2-.2-.4-.5-.4-.8h0c0,.2-.2.4-.4.6-.2.2-.4.4-.7.5s-.7.2-1.1.2c-.5,0-.9-.1-1.3-.3-.4-.2-.7-.5-.9-.8-.3-.4-.4-.8-.6-1.2-.1-.5-.2-1-.2-1.5s0-1,.2-1.4c.2-.4.4-.8.6-1.1s.6-.6,1-.8.8-.3,1.2-.4c.4,0,.7,0,1,0,.3,0,.6.2.8.3.2.1.3.3.4.5h0v-.6h1.2v5.1c0,.3,0,.6.3.8s.4.4.8.4.7-.1.9-.4.3-.7.4-1.2c0-.6.1-1.3.1-2.1s0-1-.2-1.5-.3-1-.6-1.4-.6-.8-1.1-1.1-.9-.6-1.5-.8c-.6-.2-1.2-.3-1.9-.3s-1.7.1-2.4.4c-.7.3-1.3.7-1.8,1.2-.5.5-.9,1.2-1.1,1.9s-.4,1.6-.4,2.5.1,1.8.4,2.6.6,1.4,1.1,1.9c.5.5,1.1.9,1.9,1.2.7.3,1.6.4,2.6.4s.8,0,1.2-.1c.4,0,.8-.2,1.1-.3.3,0,.5-.2.7-.2l.3,1c-.2,0-.5.2-.9.3-.4,0-.8.2-1.2.2-.4,0-.8,0-1.2,0ZM794.2,1422.9c.5,0,.9-.1,1.2-.3.3-.2.5-.5.7-.9.1-.4.2-.9.2-1.6s0-1.1-.2-1.5c-.2-.4-.4-.6-.7-.8-.3-.1-.7-.2-1.1-.2s-.8.1-1.1.3c-.3.2-.5.5-.7.9s-.2.8-.2,1.2,0,.9.2,1.4c.1.4.3.8.6,1,.3.3.7.4,1.2.4Z"/>
    <path d="M807.2,1412.7v11.6h-1.4v-10.2h0l-2.8,1.9v-1.4l2.9-1.9h1.4Z"/>
    <path d="M810.6,1424.3v-1l3.8-4.2c.5-.5.8-.9,1.1-1.3.3-.4.5-.7.7-1s.2-.7.2-1,0-.8-.3-1.1c-.2-.3-.5-.5-.8-.7-.3-.2-.7-.2-1.1-.2s-.8,0-1.2.3-.6.4-.8.8c-.2.3-.3.7-.3,1.2h-1.3c0-.7.2-1.3.5-1.8.3-.5.7-.9,1.3-1.2.5-.3,1.2-.4,1.8-.4s1.3.1,1.8.4c.5.3.9.7,1.2,1.2s.4,1,.4,1.6,0,.8-.2,1.3c-.2.4-.4.9-.8,1.4s-.9,1.1-1.6,1.8l-2.6,2.8h0c0,0,5.4,0,5.4,0v1.2h-7.3Z"/>
    <path d="M821.3,1415.6l2.1,3.6,2.1-3.6h1.5l-2.8,4.4,2.8,4.4h-1.5l-2.1-3.4-2.1,3.4h-1.5l2.8-4.4-2.8-4.4h1.5Z"/>
    <path d="M833,1412.7v11.6h-1.4v-10.2h0l-2.8,1.9v-1.4l2.9-1.9h1.4Z"/>
    <path d="M836.3,1424.3v-1l3.8-4.2c.5-.5.8-.9,1.1-1.3.3-.4.5-.7.7-1s.2-.7.2-1,0-.8-.3-1.1c-.2-.3-.5-.5-.8-.7-.3-.2-.7-.2-1.1-.2s-.8,0-1.2.3-.6.4-.8.8c-.2.3-.3.7-.3,1.2h-1.3c0-.7.2-1.3.5-1.8.3-.5.7-.9,1.3-1.2.5-.3,1.2-.4,1.8-.4s1.3.1,1.8.4c.5.3.9.7,1.2,1.2s.4,1,.4,1.6,0,.8-.2,1.3c-.2.4-.4.9-.8,1.4s-.9,1.1-1.6,1.8l-2.6,2.8h0c0,0,5.4,0,5.4,0v1.2h-7.3Z"/>
  </g>
  <g class="st4">
    <path d="M867.8,1412.7v11.6h-1.4v-10.2h0l-2.8,1.9v-1.4l2.9-1.9h1.4Z"/>
    <path d="M875,1424.5c-.9,0-1.6-.2-2.2-.7-.6-.5-1.1-1.1-1.4-2-.3-.9-.5-2-.5-3.2s.2-2.3.5-3.2c.3-.9.8-1.6,1.4-2,.6-.5,1.3-.7,2.2-.7s1.6.2,2.2.7c.6.5,1.1,1.2,1.4,2,.3.9.5,2,.5,3.2s-.2,2.3-.5,3.2c-.3.9-.8,1.6-1.4,2-.6.5-1.3.7-2.2.7ZM875,1423.2c.8,0,1.5-.4,2-1.2s.7-2,.7-3.5-.1-1.9-.3-2.6-.5-1.2-.9-1.6c-.4-.4-.9-.6-1.4-.6-.8,0-1.5.4-2,1.2-.5.8-.7,2-.7,3.5s.1,1.9.3,2.6c.2.7.5,1.2.9,1.6.4.4.9.6,1.4.6Z"/>
    <path d="M887.9,1427.4c-1.2,0-2.2-.2-3.1-.5s-1.6-.8-2.2-1.4c-.6-.6-1.1-1.4-1.4-2.3-.3-.9-.5-1.9-.5-3.1s.2-2.1.5-3,.8-1.6,1.4-2.2c.6-.6,1.3-1.1,2.2-1.4.9-.3,1.8-.5,2.9-.5s2,.2,2.8.5c.8.3,1.5.8,2,1.4.5.6.9,1.2,1.2,2,.3.7.4,1.5.4,2.3s0,1.1,0,1.7-.2,1.1-.3,1.6c-.2.5-.4.9-.8,1.1-.4.3-.8.4-1.4.4s-.6,0-.9-.1c-.3,0-.6-.2-.8-.4-.2-.2-.4-.5-.4-.8h0c0,.2-.2.4-.4.6-.2.2-.4.4-.7.5s-.7.2-1.1.2c-.5,0-.9-.1-1.3-.3-.4-.2-.7-.5-.9-.8-.3-.4-.4-.8-.6-1.2-.1-.5-.2-1-.2-1.5s0-1,.2-1.4c.2-.4.4-.8.6-1.1s.6-.6,1-.8.8-.3,1.2-.4c.4,0,.7,0,1,0,.3,0,.6.2.8.3.2.1.3.3.4.5h0v-.6h1.2v5.1c0,.3,0,.6.3.8s.4.4.8.4.7-.1.9-.4.3-.7.4-1.2c0-.6.1-1.3.1-2.1s0-1-.2-1.5-.3-1-.6-1.4-.6-.8-1.1-1.1-.9-.6-1.5-.8c-.6-.2-1.2-.3-1.9-.3s-1.7.1-2.4.4c-.7.3-1.3.7-1.8,1.2-.5.5-.9,1.2-1.1,1.9s-.4,1.6-.4,2.5.1,1.8.4,2.6.6,1.4,1.1,1.9c.5.5,1.1.9,1.9,1.2.7.3,1.6.4,2.6.4s.8,0,1.2-.1c.4,0,.8-.2,1.1-.3.3,0,.5-.2.7-.2l.3,1c-.2,0-.5.2-.9.3-.4,0-.8.2-1.2.2-.4,0-.8,0-1.2,0ZM887.2,1422.9c.5,0,.9-.1,1.2-.3.3-.2.5-.5.7-.9.1-.4.2-.9.2-1.6s0-1.1-.2-1.5c-.2-.4-.4-.6-.7-.8-.3-.1-.7-.2-1.1-.2s-.8.1-1.1.3c-.3.2-.5.5-.7.9s-.2.8-.2,1.2,0,.9.2,1.4c.1.4.3.8.6,1,.3.3.7.4,1.2.4Z"/>
    <path d="M900.2,1412.7v11.6h-1.4v-10.2h0l-2.8,1.9v-1.4l2.9-1.9h1.4Z"/>
    <path d="M903.6,1424.3v-1l3.8-4.2c.5-.5.8-.9,1.1-1.3.3-.4.5-.7.7-1s.2-.7.2-1,0-.8-.3-1.1c-.2-.3-.5-.5-.8-.7-.3-.2-.7-.2-1.1-.2s-.8,0-1.2.3-.6.4-.8.8c-.2.3-.3.7-.3,1.2h-1.3c0-.7.2-1.3.5-1.8.3-.5.7-.9,1.3-1.2.5-.3,1.2-.4,1.8-.4s1.3.1,1.8.4c.5.3.9.7,1.2,1.2s.4,1,.4,1.6,0,.8-.2,1.3c-.2.4-.4.9-.8,1.4s-.9,1.1-1.6,1.8l-2.6,2.8h0c0,0,5.4,0,5.4,0v1.2h-7.3Z"/>
    <path d="M914.3,1415.6l2.1,3.6,2.1-3.6h1.5l-2.8,4.4,2.8,4.4h-1.5l-2.1-3.4-2.1,3.4h-1.5l2.8-4.4-2.8-4.4h1.5Z"/>
    <path d="M926,1412.7v11.6h-1.4v-10.2h0l-2.8,1.9v-1.4l2.9-1.9h1.4Z"/>
    <path d="M929.3,1424.3v-1l3.8-4.2c.5-.5.8-.9,1.1-1.3.3-.4.5-.7.7-1s.2-.7.2-1,0-.8-.3-1.1c-.2-.3-.5-.5-.8-.7-.3-.2-.7-.2-1.1-.2s-.8,0-1.2.3-.6.4-.8.8c-.2.3-.3.7-.3,1.2h-1.3c0-.7.2-1.3.5-1.8.3-.5.7-.9,1.3-1.2.5-.3,1.2-.4,1.8-.4s1.3.1,1.8.4c.5.3.9.7,1.2,1.2s.4,1,.4,1.6,0,.8-.2,1.3c-.2.4-.4.9-.8,1.4s-.9,1.1-1.6,1.8l-2.6,2.8h0c0,0,5.4,0,5.4,0v1.2h-7.3Z"/>
  </g>
  <g class="st4">
    <path d="M972.7,1396.3v-1l3.8-4.2c.5-.5.8-.9,1.1-1.3.3-.4.5-.7.7-1s.2-.7.2-1,0-.8-.3-1.1c-.2-.3-.5-.5-.8-.7-.3-.2-.7-.2-1.1-.2s-.8,0-1.2.3-.6.4-.8.8c-.2.3-.3.7-.3,1.2h-1.3c0-.7.2-1.3.5-1.8.3-.5.7-.9,1.3-1.2.5-.3,1.2-.4,1.8-.4s1.3.1,1.8.4c.5.3.9.7,1.2,1.2s.4,1,.4,1.6,0,.8-.2,1.3c-.2.4-.4.9-.8,1.4s-.9,1.1-1.6,1.8l-2.6,2.8h0c0,0,5.4,0,5.4,0v1.2h-7.3Z"/>
    <path d="M986.2,1396.5c-.9,0-1.6-.2-2.2-.7-.6-.5-1.1-1.1-1.4-2-.3-.9-.5-2-.5-3.2s.2-2.3.5-3.2c.3-.9.8-1.6,1.4-2,.6-.5,1.3-.7,2.2-.7s1.6.2,2.2.7c.6.5,1.1,1.2,1.4,2,.3.9.5,2,.5,3.2s-.2,2.3-.5,3.2c-.3.9-.8,1.6-1.4,2-.6.5-1.3.7-2.2.7ZM986.2,1395.2c.8,0,1.5-.4,2-1.2s.7-2,.7-3.5-.1-1.9-.3-2.6-.5-1.2-.9-1.6c-.4-.4-.9-.6-1.4-.6-.8,0-1.5.4-2,1.2-.5.8-.7,2-.7,3.5s.1,1.9.3,2.6c.2.7.5,1.2.9,1.6.4.4.9.6,1.4.6Z"/>
    <path d="M999.2,1399.4c-1.2,0-2.2-.2-3.1-.5s-1.6-.8-2.2-1.4c-.6-.6-1.1-1.4-1.4-2.3-.3-.9-.5-1.9-.5-3.1s.2-2.1.5-3,.8-1.6,1.4-2.2c.6-.6,1.3-1.1,2.2-1.4.9-.3,1.8-.5,2.9-.5s2,.2,2.8.5c.8.3,1.5.8,2,1.4.5.6.9,1.2,1.2,2,.3.7.4,1.5.4,2.3s0,1.1,0,1.7-.2,1.1-.3,1.6c-.2.5-.4.9-.8,1.1-.4.3-.8.4-1.4.4s-.6,0-.9-.1c-.3,0-.6-.2-.8-.4-.2-.2-.4-.5-.4-.8h0c0,.2-.2.4-.4.6-.2.2-.4.4-.7.5s-.7.2-1.1.2c-.5,0-.9-.1-1.3-.3-.4-.2-.7-.5-.9-.8-.3-.4-.4-.8-.6-1.2-.1-.5-.2-1-.2-1.5s0-1,.2-1.4c.2-.4.4-.8.6-1.1s.6-.6,1-.8.8-.3,1.2-.4c.4,0,.7,0,1,0,.3,0,.6.2.8.3.2.1.3.3.4.5h0v-.6h1.2v5.1c0,.3,0,.6.3.8s.4.4.8.4.7-.1.9-.4.3-.7.4-1.2c0-.6.1-1.3.1-2.1s0-1-.2-1.5-.3-1-.6-1.4-.6-.8-1.1-1.1-.9-.6-1.5-.8c-.6-.2-1.2-.3-1.9-.3s-1.7.1-2.4.4c-.7.3-1.3.7-1.8,1.2-.5.5-.9,1.2-1.1,1.9s-.4,1.6-.4,2.5.1,1.8.4,2.6.6,1.4,1.1,1.9c.5.5,1.1.9,1.9,1.2.7.3,1.6.4,2.6.4s.8,0,1.2-.1c.4,0,.8-.2,1.1-.3.3,0,.5-.2.7-.2l.3,1c-.2,0-.5.2-.9.3-.4,0-.8.2-1.2.2-.4,0-.8,0-1.2,0ZM998.5,1394.9c.5,0,.9-.1,1.2-.3.3-.2.5-.5.7-.9.1-.4.2-.9.2-1.6s0-1.1-.2-1.5c-.2-.4-.4-.6-.7-.8-.3-.1-.7-.2-1.1-.2s-.8.1-1.1.3c-.3.2-.5.5-.7.9s-.2.8-.2,1.2,0,.9.2,1.4c.1.4.3.8.6,1,.3.3.7.4,1.2.4Z"/>
    <path d="M1011.1,1396.5c-.8,0-1.5-.1-2.1-.4-.6-.3-1.1-.7-1.4-1.2-.3-.5-.5-1.1-.5-1.7,0-.5,0-.9.3-1.4.2-.4.5-.8.8-1.1.3-.3.7-.5,1.2-.5h0c-.6-.2-1-.5-1.3-1-.3-.5-.5-1-.5-1.7,0-.6.1-1.1.4-1.6.3-.5.7-.8,1.3-1.1s1.1-.4,1.8-.4,1.3.1,1.8.4.9.6,1.3,1.1c.3.5.5,1,.5,1.6,0,.6-.2,1.2-.5,1.7s-.8.8-1.3.9h0c.4.1.8.3,1.1.6.3.3.6.6.8,1.1.2.4.3.9.3,1.4,0,.6-.2,1.2-.5,1.7-.3.5-.8.9-1.4,1.2-.6.3-1.3.4-2.1.4ZM1011.1,1395.2c.5,0,1,0,1.4-.3.4-.2.7-.4.9-.7.2-.3.3-.7.3-1.1,0-.4-.1-.8-.3-1.2-.2-.3-.5-.6-.9-.8s-.8-.3-1.3-.3-.9,0-1.3.3-.7.5-.9.8-.3.7-.3,1.2c0,.4,0,.8.3,1.1s.5.6.9.7c.4.2.8.3,1.4.3ZM1011.1,1389.7c.4,0,.8,0,1.1-.2.3-.2.6-.4.8-.7s.3-.7.3-1.1c0-.4,0-.7-.3-1-.2-.3-.4-.5-.8-.7-.3-.2-.7-.2-1.1-.2s-.8,0-1.1.2c-.3.2-.6.4-.8.7-.2.3-.3.6-.3,1,0,.4,0,.8.3,1.1s.4.5.8.7c.3.2.7.2,1.1.2Z"/>
    <path d="M1018.3,1387.6l2.1,3.6,2.1-3.6h1.5l-2.8,4.4,2.8,4.4h-1.5l-2.1-3.4-2.1,3.4h-1.5l2.8-4.4-2.8-4.4h1.5Z"/>
    <path d="M1029.6,1396.5c-.8,0-1.5-.1-2.1-.4-.6-.3-1.1-.7-1.4-1.2-.3-.5-.5-1.1-.5-1.7,0-.5,0-.9.3-1.4.2-.4.5-.8.8-1.1.3-.3.7-.5,1.2-.5h0c-.6-.2-1-.5-1.3-1-.3-.5-.5-1-.5-1.7,0-.6.1-1.1.4-1.6.3-.5.7-.8,1.3-1.1s1.1-.4,1.8-.4,1.3.1,1.8.4.9.6,1.3,1.1c.3.5.5,1,.5,1.6,0,.6-.2,1.2-.5,1.7s-.8.8-1.3.9h0c.4.1.8.3,1.1.6.3.3.6.6.8,1.1.2.4.3.9.3,1.4,0,.6-.2,1.2-.5,1.7-.3.5-.8.9-1.4,1.2-.6.3-1.3.4-2.1.4ZM1029.6,1395.2c.5,0,1,0,1.4-.3.4-.2.7-.4.9-.7.2-.3.3-.7.3-1.1,0-.4-.1-.8-.3-1.2-.2-.3-.5-.6-.9-.8s-.8-.3-1.3-.3-.9,0-1.3.3-.7.5-.9.8-.3.7-.3,1.2c0,.4,0,.8.3,1.1s.5.6.9.7c.4.2.8.3,1.4.3ZM1029.6,1389.7c.4,0,.8,0,1.1-.2.3-.2.6-.4.8-.7s.3-.7.3-1.1c0-.4,0-.7-.3-1-.2-.3-.4-.5-.8-.7-.3-.2-.7-.2-1.1-.2s-.8,0-1.1.2c-.3.2-.6.4-.8.7-.2.3-.3.6-.3,1,0,.4,0,.8.3,1.1s.4.5.8.7c.3.2.7.2,1.1.2Z"/>
  </g>
  <g class="st4">
    <path d="M1102.8,1398.2v-1l3.8-4.2c.5-.5.8-.9,1.1-1.3.3-.4.5-.7.7-1,.1-.3.2-.7.2-1s0-.8-.3-1.1c-.2-.3-.5-.5-.8-.7-.3-.2-.7-.2-1.1-.2s-.8,0-1.2.3c-.3.2-.6.4-.8.8-.2.3-.3.7-.3,1.2h-1.3c0-.7.2-1.3.5-1.8.3-.5.7-.9,1.3-1.2.5-.3,1.2-.4,1.8-.4s1.3.1,1.8.4c.5.3.9.7,1.2,1.2.3.5.4,1,.4,1.6s0,.8-.2,1.3-.4.9-.8,1.4-.9,1.1-1.6,1.8l-2.6,2.8h0c0,0,5.4,0,5.4,0v1.2h-7.3Z"/>
    <path d="M1116.3,1398.4c-.9,0-1.6-.2-2.2-.7-.6-.5-1.1-1.1-1.4-2-.3-.9-.5-2-.5-3.2s.2-2.3.5-3.2c.3-.9.8-1.6,1.4-2,.6-.5,1.3-.7,2.2-.7s1.6.2,2.2.7,1.1,1.2,1.4,2c.3.9.5,2,.5,3.2s-.2,2.3-.5,3.2c-.3.9-.8,1.6-1.4,2-.6.5-1.3.7-2.2.7ZM1116.3,1397.1c.8,0,1.5-.4,2-1.2s.7-2,.7-3.5-.1-1.9-.3-2.6c-.2-.7-.5-1.2-.9-1.6-.4-.4-.9-.6-1.4-.6-.8,0-1.5.4-2,1.2-.5.8-.7,2-.7,3.5s.1,1.9.3,2.6c.2.7.5,1.2.9,1.6.4.4.9.6,1.4.6Z"/>
    <path d="M1129.2,1401.3c-1.2,0-2.2-.2-3.1-.5-.9-.3-1.6-.8-2.2-1.4-.6-.6-1.1-1.4-1.4-2.3-.3-.9-.5-1.9-.5-3.1s.2-2.1.5-3,.8-1.6,1.4-2.2c.6-.6,1.3-1.1,2.2-1.4s1.8-.5,2.9-.5,2,.2,2.8.5c.8.3,1.5.8,2,1.4s.9,1.3,1.2,2c.3.7.4,1.5.4,2.3s0,1.1,0,1.7c0,.6-.2,1.1-.3,1.6-.2.5-.4.9-.8,1.1-.4.3-.8.4-1.4.4s-.6,0-.9-.1c-.3,0-.6-.2-.8-.4-.2-.2-.4-.5-.4-.8h0c0,.2-.2.4-.4.6-.2.2-.4.4-.7.5-.3.1-.7.2-1.1.2-.5,0-.9-.1-1.3-.3-.4-.2-.7-.5-.9-.8-.3-.4-.4-.8-.6-1.2s-.2-1-.2-1.5,0-1,.2-1.4c.2-.4.4-.8.6-1.1.3-.3.6-.6,1-.8.4-.2.8-.3,1.2-.4.4,0,.7,0,1,0,.3,0,.6.2.8.3.2.1.3.3.4.5h0v-.6h1.2v5.1c0,.3,0,.6.3.8.2.2.4.4.8.4s.7-.1.9-.4c.2-.3.3-.7.4-1.2,0-.6.1-1.3.1-2.1s0-1-.2-1.5c-.1-.5-.3-1-.6-1.4s-.6-.8-1.1-1.1c-.4-.3-.9-.6-1.5-.8s-1.2-.3-1.9-.3-1.7.1-2.4.4c-.7.3-1.3.7-1.8,1.2s-.9,1.2-1.1,1.9-.4,1.6-.4,2.5.1,1.8.4,2.6.6,1.4,1.1,1.9c.5.5,1.1.9,1.9,1.2.7.3,1.6.4,2.6.4s.8,0,1.2-.1c.4,0,.8-.2,1.1-.3s.5-.2.7-.2l.3,1c-.2,0-.5.2-.9.3s-.8.2-1.2.2-.8,0-1.2,0ZM1128.6,1396.8c.5,0,.9-.1,1.2-.3.3-.2.5-.5.7-.9.1-.4.2-.9.2-1.6s0-1.1-.2-1.5c-.2-.4-.4-.6-.7-.8-.3-.1-.7-.2-1.1-.2s-.8.1-1.1.3-.5.5-.7.9-.2.8-.2,1.2,0,.9.2,1.4c.1.4.3.8.6,1,.3.3.7.4,1.2.4Z"/>
    <path d="M1141.2,1398.4c-.8,0-1.5-.1-2.1-.4-.6-.3-1.1-.7-1.4-1.2-.3-.5-.5-1-.5-1.7,0-.5,0-.9.3-1.4.2-.4.5-.8.8-1.1s.7-.5,1.2-.5h0c-.6-.2-1-.5-1.3-1-.3-.5-.5-1-.5-1.7,0-.6.1-1.1.4-1.6.3-.5.7-.8,1.3-1.1.5-.3,1.1-.4,1.8-.4s1.3.1,1.8.4c.5.3.9.6,1.3,1.1.3.5.5,1,.5,1.6,0,.6-.2,1.2-.5,1.7-.3.5-.8.8-1.3.9h0c.4.1.8.3,1.1.6.3.3.6.6.8,1.1.2.4.3.9.3,1.4,0,.6-.2,1.2-.5,1.7-.3.5-.8.9-1.4,1.2s-1.3.4-2.1.4ZM1141.2,1397.1c.5,0,1,0,1.4-.3.4-.2.7-.4.9-.7.2-.3.3-.7.3-1.1,0-.4-.1-.8-.3-1.2-.2-.3-.5-.6-.9-.8-.4-.2-.8-.3-1.3-.3s-.9,0-1.3.3c-.4.2-.7.5-.9.8-.2.3-.3.7-.3,1.2,0,.4,0,.8.3,1.1.2.3.5.6.9.7.4.2.8.3,1.4.3ZM1141.2,1391.6c.4,0,.8,0,1.1-.2.3-.2.6-.4.8-.7s.3-.6.3-1.1c0-.4,0-.7-.3-1-.2-.3-.4-.5-.8-.7-.3-.2-.7-.2-1.1-.2s-.8,0-1.1.2c-.3.2-.6.4-.8.7-.2.3-.3.6-.3,1,0,.4,0,.8.3,1.1s.4.5.8.7c.3.2.7.2,1.1.2Z"/>
    <path d="M1148.4,1389.5l2.1,3.6,2.1-3.6h1.5l-2.8,4.4,2.8,4.4h-1.5l-2.1-3.4-2.1,3.4h-1.5l2.8-4.4-2.8-4.4h1.5Z"/>
    <path d="M1159.7,1398.4c-.8,0-1.5-.1-2.1-.4s-1.1-.7-1.4-1.2c-.3-.5-.5-1-.5-1.7,0-.5,0-.9.3-1.4.2-.4.5-.8.8-1.1s.7-.5,1.2-.5h0c-.6-.2-1-.5-1.3-1-.3-.5-.5-1-.5-1.7,0-.6.1-1.1.4-1.6.3-.5.7-.8,1.3-1.1.5-.3,1.1-.4,1.8-.4s1.3.1,1.8.4c.5.3.9.6,1.3,1.1s.5,1,.5,1.6c0,.6-.2,1.2-.5,1.7-.3.5-.8.8-1.3.9h0c.4.1.8.3,1.1.6s.6.6.8,1.1c.2.4.3.9.3,1.4,0,.6-.2,1.2-.5,1.7-.3.5-.8.9-1.4,1.2s-1.3.4-2.1.4ZM1159.7,1397.1c.5,0,1,0,1.4-.3.4-.2.7-.4.9-.7s.3-.7.3-1.1c0-.4-.1-.8-.3-1.2-.2-.3-.5-.6-.9-.8-.4-.2-.8-.3-1.3-.3s-.9,0-1.3.3c-.4.2-.7.5-.9.8-.2.3-.3.7-.3,1.2,0,.4,0,.8.3,1.1.2.3.5.6.9.7.4.2.8.3,1.4.3ZM1159.7,1391.6c.4,0,.8,0,1.1-.2.3-.2.6-.4.8-.7s.3-.6.3-1.1c0-.4,0-.7-.3-1-.2-.3-.4-.5-.8-.7-.3-.2-.7-.2-1.1-.2s-.8,0-1.1.2c-.3.2-.6.4-.8.7-.2.3-.3.6-.3,1,0,.4,0,.8.3,1.1s.4.5.8.7c.3.2.7.2,1.1.2Z"/>
  </g>
  <g class="st4">
    <path d="M1227.6,1398.6v-1l3.8-4.2c.5-.5.8-.9,1.1-1.3.3-.4.5-.7.7-1,.1-.3.2-.7.2-1s0-.8-.3-1.1c-.2-.3-.5-.5-.8-.7-.3-.2-.7-.2-1.1-.2s-.8,0-1.2.3c-.3.2-.6.4-.8.8-.2.3-.3.7-.3,1.2h-1.3c0-.7.2-1.3.5-1.8.3-.5.7-.9,1.3-1.2.5-.3,1.2-.4,1.8-.4s1.3.1,1.8.4c.5.3.9.7,1.2,1.2.3.5.4,1,.4,1.6s0,.8-.2,1.3-.4.9-.8,1.4-.9,1.1-1.6,1.8l-2.6,2.8h0c0,0,5.4,0,5.4,0v1.2h-7.3Z"/>
    <path d="M1241,1398.8c-.9,0-1.6-.2-2.2-.7-.6-.5-1.1-1.1-1.4-2-.3-.9-.5-2-.5-3.2s.2-2.3.5-3.2c.3-.9.8-1.6,1.4-2,.6-.5,1.3-.7,2.2-.7s1.6.2,2.2.7,1.1,1.2,1.4,2c.3.9.5,2,.5,3.2s-.2,2.3-.5,3.2c-.3.9-.8,1.6-1.4,2-.6.5-1.3.7-2.2.7ZM1241,1397.5c.8,0,1.5-.4,2-1.2s.7-2,.7-3.5-.1-1.9-.3-2.6c-.2-.7-.5-1.2-.9-1.6-.4-.4-.9-.6-1.4-.6-.8,0-1.5.4-2,1.2-.5.8-.7,2-.7,3.5s.1,1.9.3,2.6.5,1.2.9,1.6c.4.4.9.6,1.4.6Z"/>
    <path d="M1254,1401.7c-1.2,0-2.2-.2-3.1-.5s-1.6-.8-2.2-1.4c-.6-.6-1.1-1.4-1.4-2.3-.3-.9-.5-1.9-.5-3.1s.2-2.1.5-3,.8-1.6,1.4-2.2c.6-.6,1.3-1.1,2.2-1.4s1.8-.5,2.9-.5,2,.2,2.8.5,1.5.8,2,1.4c.5.6.9,1.3,1.2,2,.3.7.4,1.5.4,2.3s0,1.1,0,1.7c0,.6-.2,1.1-.3,1.6-.2.5-.4.9-.8,1.1-.4.3-.8.4-1.4.4s-.6,0-.9-.1c-.3,0-.6-.2-.8-.4-.2-.2-.4-.5-.4-.8h0c0,.2-.2.4-.4.6-.2.2-.4.4-.7.5-.3.1-.7.2-1.1.2-.5,0-.9-.1-1.3-.3-.4-.2-.7-.5-.9-.8-.3-.4-.4-.8-.6-1.2s-.2-1-.2-1.5,0-1,.2-1.4c.2-.4.4-.8.6-1.1.3-.3.6-.6,1-.8.4-.2.8-.3,1.2-.4.4,0,.7,0,1,0,.3,0,.6.2.8.3.2.1.3.3.4.5h0v-.6h1.2v5.1c0,.3,0,.6.3.8.2.2.4.4.8.4s.7-.1.9-.4c.2-.3.3-.7.4-1.2,0-.6.1-1.3.1-2.1s0-1-.2-1.5c-.1-.5-.3-1-.6-1.4-.3-.4-.6-.8-1.1-1.1-.4-.3-.9-.6-1.5-.8s-1.2-.3-1.9-.3-1.7.1-2.4.4c-.7.3-1.3.7-1.8,1.2s-.9,1.2-1.1,1.9-.4,1.6-.4,2.5.1,1.8.4,2.6.6,1.4,1.1,1.9c.5.5,1.1.9,1.9,1.2.7.3,1.6.4,2.6.4s.8,0,1.2-.1c.4,0,.8-.2,1.1-.3s.5-.2.7-.2l.3,1c-.2,0-.5.2-.9.3s-.8.2-1.2.2-.8,0-1.2,0ZM1253.3,1397.2c.5,0,.9-.1,1.2-.3.3-.2.5-.5.7-.9.1-.4.2-.9.2-1.6s0-1.1-.2-1.5c-.2-.4-.4-.6-.7-.8-.3-.1-.7-.2-1.1-.2s-.8.1-1.1.3-.5.5-.7.9-.2.8-.2,1.2,0,.9.2,1.4c.1.4.3.8.6,1,.3.3.7.4,1.2.4Z"/>
    <path d="M1261.9,1396.2v-1.2l5.1-8.1h.8v1.8h-.6l-3.9,6.1h0c0,0,6.9,0,6.9,0v1.2h-8.4ZM1267.4,1398.6v-11.6h1.3v11.6h-1.3Z"/>
    <path d="M1273.5,1389.9l2.1,3.6,2.1-3.6h1.5l-2.8,4.4,2.8,4.4h-1.5l-2.1-3.4-2.1,3.4h-1.5l2.8-4.4-2.8-4.4h1.5Z"/>
    <path d="M1280.9,1396.2v-1.2l5.1-8.1h.8v1.8h-.6l-3.9,6.1h0c0,0,6.9,0,6.9,0v1.2h-8.4ZM1286.3,1398.6v-11.6h1.3v11.6h-1.3Z"/>
  </g>
  <g class="st4">
    <path d="M1305.8,1398.6v-1l3.8-4.2c.5-.5.8-.9,1.1-1.3.3-.4.5-.7.7-1,.1-.3.2-.7.2-1s0-.8-.3-1.1c-.2-.3-.5-.5-.8-.7-.3-.2-.7-.2-1.1-.2s-.8,0-1.2.3c-.3.2-.6.4-.8.8-.2.3-.3.7-.3,1.2h-1.3c0-.7.2-1.3.5-1.8.3-.5.7-.9,1.3-1.2.5-.3,1.2-.4,1.8-.4s1.3.1,1.8.4c.5.3.9.7,1.2,1.2.3.5.4,1,.4,1.6s0,.8-.2,1.3c-.2.4-.4.9-.8,1.4s-.9,1.1-1.6,1.8l-2.6,2.8h0c0,0,5.4,0,5.4,0v1.2h-7.3Z"/>
    <path d="M1319.2,1398.8c-.9,0-1.6-.2-2.2-.7s-1.1-1.1-1.4-2c-.3-.9-.5-2-.5-3.2s.2-2.3.5-3.2c.3-.9.8-1.6,1.4-2,.6-.5,1.3-.7,2.2-.7s1.6.2,2.2.7c.6.5,1.1,1.2,1.4,2,.3.9.5,2,.5,3.2s-.2,2.3-.5,3.2c-.3.9-.8,1.6-1.4,2s-1.3.7-2.2.7ZM1319.2,1397.5c.8,0,1.5-.4,2-1.2.5-.8.7-2,.7-3.5s-.1-1.9-.3-2.6c-.2-.7-.5-1.2-.9-1.6-.4-.4-.9-.6-1.4-.6-.8,0-1.5.4-2,1.2-.5.8-.7,2-.7,3.5s.1,1.9.3,2.6c.2.7.5,1.2.9,1.6.4.4.9.6,1.4.6Z"/>
    <path d="M1332.2,1401.7c-1.2,0-2.2-.2-3.1-.5-.9-.3-1.6-.8-2.2-1.4-.6-.6-1.1-1.4-1.4-2.3-.3-.9-.5-1.9-.5-3.1s.2-2.1.5-3,.8-1.6,1.4-2.2c.6-.6,1.3-1.1,2.2-1.4s1.8-.5,2.9-.5,2,.2,2.8.5c.8.3,1.5.8,2,1.4.5.6.9,1.3,1.2,2,.3.7.4,1.5.4,2.3s0,1.1,0,1.7-.2,1.1-.3,1.6c-.2.5-.4.9-.8,1.1s-.8.4-1.4.4-.6,0-.9-.1c-.3,0-.6-.2-.8-.4-.2-.2-.4-.5-.4-.8h0c0,.2-.2.4-.4.6-.2.2-.4.4-.7.5-.3.1-.7.2-1.1.2-.5,0-.9-.1-1.3-.3-.4-.2-.7-.5-.9-.8-.3-.4-.4-.8-.6-1.2s-.2-1-.2-1.5,0-1,.2-1.4c.2-.4.4-.8.6-1.1.3-.3.6-.6,1-.8s.8-.3,1.2-.4c.4,0,.7,0,1,0,.3,0,.6.2.8.3.2.1.3.3.4.5h0v-.6h1.2v5.1c0,.3,0,.6.3.8s.4.4.8.4.7-.1.9-.4c.2-.3.3-.7.4-1.2,0-.6.1-1.3.1-2.1s0-1-.2-1.5c-.1-.5-.3-1-.6-1.4s-.6-.8-1.1-1.1c-.4-.3-.9-.6-1.5-.8s-1.2-.3-1.9-.3-1.7.1-2.4.4-1.3.7-1.8,1.2-.9,1.2-1.1,1.9-.4,1.6-.4,2.5.1,1.8.4,2.6.6,1.4,1.1,1.9c.5.5,1.1.9,1.9,1.2.7.3,1.6.4,2.6.4s.8,0,1.2-.1c.4,0,.8-.2,1.1-.3s.5-.2.7-.2l.3,1c-.2,0-.5.2-.9.3s-.8.2-1.2.2-.8,0-1.2,0ZM1331.5,1397.2c.5,0,.9-.1,1.2-.3.3-.2.5-.5.7-.9.1-.4.2-.9.2-1.6s0-1.1-.2-1.5c-.2-.4-.4-.6-.7-.8-.3-.1-.7-.2-1.1-.2s-.8.1-1.1.3-.5.5-.7.9c-.2.4-.2.8-.2,1.2s0,.9.2,1.4c.1.4.3.8.6,1,.3.3.7.4,1.2.4Z"/>
    <path d="M1340.1,1396.2v-1.2l5.1-8.1h.8v1.8h-.6l-3.9,6.1h0c0,0,6.9,0,6.9,0v1.2h-8.4ZM1345.6,1398.6v-11.6h1.3v11.6h-1.3Z"/>
    <path d="M1351.7,1389.9l2.1,3.6,2.1-3.6h1.5l-2.8,4.4,2.8,4.4h-1.5l-2.1-3.4-2.1,3.4h-1.5l2.8-4.4-2.8-4.4h1.5Z"/>
    <path d="M1359,1396.2v-1.2l5.1-8.1h.8v1.8h-.6l-3.9,6.1h0c0,0,6.9,0,6.9,0v1.2h-8.4ZM1364.5,1398.6v-11.6h1.3v11.6h-1.3Z"/>
  </g>
  <g class="st4">
    <path d="M1437,1356.2v11.6h-1.4v-10.2h0l-2.8,1.9v-1.4l2.9-1.9h1.4Z"/>
    <path d="M1441.4,1359.1l2.1,3.6,2.1-3.6h1.5l-2.8,4.4,2.8,4.4h-1.5l-2.1-3.4-2.1,3.4h-1.5l2.8-4.4-2.8-4.4h1.5Z"/>
    <path d="M1452.9,1368c-.8,0-1.4-.1-2-.4-.6-.3-1-.6-1.4-1.1-.3-.5-.5-1-.6-1.6h1.4c0,.4.2.7.4,1,.2.3.5.5.9.6.4.1.8.2,1.2.2s.9,0,1.3-.3c.4-.2.7-.4.9-.7s.3-.7.3-1.1-.1-.8-.3-1.1c-.2-.3-.5-.6-.9-.8-.4-.2-.9-.3-1.5-.3h-.9v-1.2h.9c.5,0,.9,0,1.2-.2.4-.2.6-.4.8-.7.2-.3.3-.7.3-1.1s0-.7-.3-1c-.2-.3-.4-.5-.7-.7-.3-.2-.7-.2-1.1-.2s-.8,0-1.1.2c-.4.1-.6.4-.9.6s-.3.6-.4,1h-1.4c0-.6.2-1.1.6-1.6.3-.5.8-.8,1.4-1.1.6-.3,1.2-.4,1.8-.4s1.3.1,1.9.4c.5.3.9.7,1.2,1.1s.4,1,.4,1.5-.2,1.2-.5,1.7-.8.8-1.4,1h0c.7.2,1.3.5,1.7,1s.6,1.1.6,1.9-.2,1.2-.5,1.7c-.3.5-.8.9-1.4,1.2-.6.3-1.3.4-2,.4Z"/>
    <path d="M1459.2,1367.9v-1l3.8-4.2c.5-.5.8-.9,1.1-1.3.3-.4.5-.7.7-1,.1-.3.2-.7.2-1s0-.8-.3-1.1c-.2-.3-.5-.5-.8-.7-.3-.2-.7-.2-1.1-.2s-.8,0-1.2.3c-.3.2-.6.4-.8.8-.2.3-.3.7-.3,1.2h-1.3c0-.7.2-1.3.5-1.8.3-.5.7-.9,1.3-1.2.5-.3,1.2-.4,1.8-.4s1.3.1,1.8.4c.5.3.9.7,1.2,1.2.3.5.4,1,.4,1.6s0,.8-.2,1.3-.4.9-.8,1.4-.9,1.1-1.6,1.8l-2.6,2.8h0c0,0,5.4,0,5.4,0v1.2h-7.3Z"/>
    <path d="M1472.7,1368c-.9,0-1.6-.2-2.2-.7-.6-.5-1.1-1.1-1.4-2-.3-.9-.5-2-.5-3.2s.2-2.3.5-3.2c.3-.9.8-1.6,1.4-2s1.3-.7,2.2-.7,1.6.2,2.2.7c.6.5,1.1,1.2,1.4,2,.3.9.5,2,.5,3.2s-.2,2.3-.5,3.2c-.3.9-.8,1.6-1.4,2-.6.5-1.3.7-2.2.7ZM1472.7,1366.8c.8,0,1.5-.4,2-1.2s.7-2,.7-3.5-.1-1.9-.3-2.6c-.2-.7-.5-1.2-.9-1.6-.4-.4-.9-.6-1.4-.6-.8,0-1.5.4-2,1.2-.5.8-.7,2-.7,3.5s.1,1.9.3,2.6.5,1.2.9,1.6c.4.4.9.6,1.4.6Z"/>
  </g>
  <g class="st4">
    <path d="M1628.2,1410.3v11.6h-1.4v-10.2h0l-2.8,1.9v-1.4l2.9-1.9h1.4Z"/>
    <path d="M1632.6,1413.2l2.1,3.6,2.1-3.6h1.5l-2.8,4.4,2.8,4.4h-1.5l-2.1-3.4-2.1,3.4h-1.5l2.8-4.4-2.8-4.4h1.5Z"/>
    <path d="M1643.8,1422.1c-.7,0-1.3-.1-1.8-.4-.5-.3-1-.6-1.3-1.1-.3-.5-.5-1-.5-1.6h1.4c0,.5.3,1,.7,1.3.4.3.9.5,1.5.5s.9-.1,1.3-.3c.4-.2.7-.5.9-.9.2-.4.3-.8.3-1.3s-.1-1-.3-1.4c-.2-.4-.5-.7-.9-.9-.4-.2-.8-.3-1.3-.4-.4,0-.7,0-1.1.2-.4.1-.7.3-.9.4l-1.3-.2.7-5.7h6v1.2h-4.9l-.4,3.4h0c.2-.2.5-.3.9-.5.4-.1.7-.2,1.1-.2.7,0,1.3.2,1.9.5.6.3,1,.8,1.3,1.4s.5,1.3.5,2-.2,1.4-.5,2c-.3.6-.8,1-1.4,1.4-.6.3-1.2.5-2,.5Z"/>
    <path d="M1653.7,1422.1c-.9,0-1.6-.2-2.2-.7-.6-.5-1.1-1.1-1.4-2-.3-.9-.5-2-.5-3.2s.2-2.3.5-3.2c.3-.9.8-1.6,1.4-2,.6-.5,1.3-.7,2.2-.7s1.6.2,2.2.7,1.1,1.2,1.4,2c.3.9.5,2,.5,3.2s-.2,2.3-.5,3.2c-.3.9-.8,1.6-1.4,2-.6.5-1.3.7-2.2.7ZM1653.7,1420.9c.8,0,1.5-.4,2-1.2s.7-2,.7-3.5-.1-1.9-.3-2.6c-.2-.7-.5-1.2-.9-1.6-.4-.4-.9-.6-1.4-.6-.8,0-1.5.4-2,1.2-.5.8-.7,2-.7,3.5s.1,1.9.3,2.6c.2.7.5,1.2.9,1.6.4.4.9.6,1.4.6Z"/>
  </g>
  <g class="st4">
    <path d="M1713.9,1429.9v11.6h-1.4v-10.2h0l-2.8,1.9v-1.4l2.9-1.9h1.4Z"/>
    <path d="M1718.3,1432.8l2.1,3.6,2.1-3.6h1.5l-2.8,4.4,2.8,4.4h-1.5l-2.1-3.4-2.1,3.4h-1.5l2.8-4.4-2.8-4.4h1.5Z"/>
    <path d="M1730,1429.9v11.6h-1.4v-10.2h0l-2.8,1.9v-1.4l2.9-1.9h1.4Z"/>
    <path d="M1737.1,1441.7c-.9,0-1.6-.2-2.2-.7-.6-.5-1.1-1.1-1.4-2-.3-.9-.5-2-.5-3.2s.2-2.3.5-3.2c.3-.9.8-1.6,1.4-2,.6-.5,1.3-.7,2.2-.7s1.6.2,2.2.7,1.1,1.2,1.4,2c.3.9.5,2,.5,3.2s-.2,2.3-.5,3.2c-.3.9-.8,1.6-1.4,2-.6.5-1.3.7-2.2.7ZM1737.1,1440.4c.8,0,1.5-.4,2-1.2s.7-2,.7-3.5-.1-1.9-.3-2.6c-.2-.7-.5-1.2-.9-1.6-.4-.4-.9-.6-1.4-.6-.8,0-1.5.4-2,1.2-.5.8-.7,2-.7,3.5s.1,1.9.3,2.6c.2.7.5,1.2.9,1.6.4.4.9.6,1.4.6Z"/>
  </g>
</svg>